<svg width="349" height="114" viewBox="0 0 349 114" fill="none" xmlns="http://www.w3.org/2000/svg">
<path fill-rule="evenodd" clip-rule="evenodd" d="M-0.000976562 113.94L349 114V0.0599213C348.957 0.0599213 348.915 0.0600281 348.872 0.0602112V0L-0.000976562 0.0602112V113.94ZM-0.000976562 113.94H348.872V0.0602112C333.467 0.128578 320.907 12.5719 320.907 27.9118V65.2128C320.907 80.5949 308.371 93.0646 292.907 93.0646H26.1743C14.5706 93.0646 0.0315247 102.405 -0.000976562 113.94Z" fill="white"/>
<path d="M249.707 39.066C248.303 39.0626 246.91 39.3228 245.602 39.8329C247.369 45.3149 250.849 50.0849 255.53 53.4406C256.502 54.1257 257.529 54.728 258.602 55.2412C259.85 53.5364 260.523 51.4786 260.524 49.3658C260.524 43.6794 255.68 39.0645 249.71 39.0645" fill="#E42313"/>
<path d="M274.506 44.6947C278.473 41.6553 288.495 35.0808 286.943 32.4169C285.688 30.263 280.211 32.8628 274.023 36.2253C269.163 38.8733 270.21 35.6761 273.3 31.0034C276.026 26.8905 280.119 21.3402 277.834 19.8383C275.179 18.0906 267.037 27.7659 265.135 29.6767C263.233 31.5875 261.495 32.615 262.449 27.2935C263.729 20.2259 263.981 16.5304 262.392 16.0844C260.168 15.4616 258.777 18.2368 255.449 26.0029C253.066 31.5775 250.98 32.5641 250.727 27.5641C250.393 18.5794 248.107 20.639 247.231 22.0207C244.818 25.8148 244.001 30.4187 244.543 35.0294C246.504 34.2854 248.584 33.906 250.682 33.9098C259.959 33.9098 267.48 41.1622 267.48 50.0961C267.483 52.6912 266.837 55.2459 265.601 57.5275C270.897 58.4967 276.479 58.0312 280.685 55.9413C281.384 55.5929 283.084 54.5496 282.026 53.1106C279.912 50.2338 276.103 51.7442 272.029 50.5622C268.451 49.5252 271.639 46.8862 274.504 44.6926" fill="#E42313"/>
<path d="M258.594 55.3496C257.566 56.7366 256.225 57.8615 254.68 58.6327C253.136 59.404 251.431 59.7999 249.705 59.7882C243.731 59.7882 238.888 55.169 238.888 49.4736C238.915 47.393 239.57 45.369 240.767 43.6672C241.964 41.9654 243.648 40.6652 245.598 39.9371C245.091 38.3685 244.738 36.7545 244.544 35.1177C238.294 37.4786 233.871 43.3292 233.871 50.1844C233.871 59.1251 241.396 66.3754 250.682 66.3754C253.728 66.3969 256.722 65.594 259.349 64.0519C261.976 62.5098 264.136 60.2859 265.602 57.6157C263.175 57.1775 260.817 56.4153 258.593 55.3496" fill="#667085"/>
<path d="M69.3747 42.2059C69.3635 41.8985 69.2327 41.6076 69.0101 41.3953C68.7875 41.1829 68.4907 41.066 68.1831 41.0694H57.3876C57.0808 41.0677 56.7853 41.1852 56.5636 41.3973C56.3418 41.6094 56.2112 41.8993 56.1992 42.2059C56.2092 42.5118 56.3397 42.8013 56.5624 43.0113C56.7851 43.2212 57.0817 43.3346 57.3876 43.3266H61.5297V55.5556C61.5392 55.8824 61.6756 56.1925 61.9101 56.4203C62.1445 56.648 62.4585 56.7754 62.7854 56.7754C63.1122 56.7754 63.4262 56.648 63.6607 56.4203C63.8951 56.1925 64.0316 55.8824 64.0411 55.5556V43.3266H68.1836C68.4899 43.3346 68.7869 43.2213 69.01 43.0115C69.2332 42.8016 69.3644 42.5121 69.3752 42.2059" fill="#1D1D1B"/>
<path d="M72.9745 44.6929C72.1875 44.6967 71.4092 44.8576 70.6853 45.1663C69.9613 45.475 69.3064 45.9252 68.7588 46.4904C68.2112 47.0557 67.782 47.7246 67.4965 48.458C67.2109 49.1914 67.0747 49.9744 67.0959 50.7611V50.8082C67.0797 51.612 67.2267 52.4108 67.528 53.1562C67.8292 53.9016 68.2785 54.5782 68.8486 55.1451C69.4187 55.712 70.0978 56.1574 70.8449 56.4544C71.592 56.7515 72.3916 56.8939 73.1953 56.8732C74.0382 56.9005 74.8781 56.7594 75.6658 56.4583C76.4536 56.1572 77.1734 55.7022 77.7833 55.1197C77.9001 55.0231 77.9946 54.9024 78.0602 54.7658C78.1259 54.6292 78.1611 54.48 78.1636 54.3285C78.1531 54.0401 78.0287 53.7676 77.8178 53.5707C77.6069 53.3738 77.3266 53.2685 77.0381 53.2778C76.771 53.2795 76.5131 53.3755 76.3099 53.5489C75.481 54.3301 74.3804 54.7578 73.2414 54.7411C72.3729 54.7743 71.5227 54.4854 70.8542 53.9298C70.1858 53.3743 69.7462 52.5913 69.62 51.7313H77.5026C77.8067 51.7378 78.1009 51.6236 78.3208 51.4135C78.5407 51.2034 78.6683 50.9147 78.6757 50.6107C78.6757 47.665 76.7161 44.6929 72.9745 44.6929ZM72.9311 46.7795C74.9674 46.7795 75.9249 48.2831 76.1759 49.8083H69.6205C69.9637 48.0077 71.2782 46.7795 72.9311 46.7795Z" fill="#1D1D1B"/>
<path d="M81.4399 40.3343C81.2826 40.3316 81.1264 40.36 80.9801 40.418C80.8339 40.4759 80.7006 40.5622 80.5878 40.6719C80.475 40.7816 80.3851 40.9124 80.3231 41.057C80.2611 41.2015 80.2283 41.3569 80.2266 41.5142V55.5863C80.228 55.7458 80.2614 55.9034 80.3246 56.0499C80.3878 56.1963 80.4797 56.3286 80.5948 56.439C80.7099 56.5494 80.846 56.6358 80.9949 56.6929C81.1439 56.75 81.3027 56.7767 81.4621 56.7716C81.6205 56.7765 81.7782 56.7494 81.9258 56.692C82.0735 56.6345 82.208 56.5479 82.3214 56.4372C82.4348 56.3266 82.5246 56.1942 82.5857 56.048C82.6467 55.9018 82.6776 55.7447 82.6765 55.5863V41.5142C82.6685 41.1939 82.5338 40.8899 82.302 40.6687C82.0702 40.4476 81.7602 40.3273 81.4399 40.3343Z" fill="#1D1D1B"/>
<path d="M91.1707 50.1729L94.6809 46.8677C94.8161 46.7614 94.9263 46.6267 95.0037 46.4731C95.0811 46.3196 95.1238 46.1509 95.1289 45.979C95.1287 45.8295 95.0986 45.6815 95.0404 45.5438C94.9822 45.4061 94.8971 45.2814 94.79 45.177C94.683 45.0726 94.5561 44.9906 94.417 44.9359C94.2778 44.8812 94.1292 44.8549 93.9797 44.8584C93.8012 44.8585 93.6249 44.897 93.4627 44.9714C93.3004 45.0458 93.1562 45.1543 93.0397 45.2895L87.4656 50.7205V41.5144C87.4524 41.1984 87.3176 40.8996 87.0893 40.6806C86.861 40.4616 86.5569 40.3394 86.2406 40.3394C85.9242 40.3394 85.6202 40.4616 85.3919 40.6806C85.1636 40.8996 85.0288 41.1984 85.0156 41.5144V55.5865C85.0181 55.7462 85.0523 55.9039 85.1164 56.0502C85.1805 56.1965 85.2731 56.3285 85.3889 56.4386C85.5046 56.5487 85.6412 56.6346 85.7905 56.6912C85.9398 56.7479 86.099 56.7742 86.2586 56.7686C86.4163 56.7735 86.5734 56.7464 86.7204 56.6891C86.8674 56.6317 87.0013 56.5452 87.114 56.4348C87.2267 56.3244 87.316 56.1923 87.3764 56.0466C87.4368 55.9008 87.4671 55.7443 87.4656 55.5865V53.627L89.4373 51.7596L93.1578 56.2496C93.2725 56.4149 93.4266 56.549 93.6062 56.6398C93.7858 56.7306 93.9851 56.7752 94.1862 56.7697C94.4109 56.7819 94.634 56.7267 94.827 56.6112C95.02 56.4956 95.174 56.3249 95.2692 56.1211C95.3645 55.9173 95.3965 55.6896 95.3613 55.4674C95.3261 55.2452 95.2253 55.0386 95.0717 54.8742L91.1707 50.1729Z" fill="#1D1D1B"/>
<path d="M101.785 44.6939C98.2106 44.6939 95.418 47.3673 95.418 50.7844V50.8299C95.418 54.2194 98.1926 56.8737 101.737 56.8737C105.322 56.8737 108.127 54.2056 108.127 50.7833V50.743C108.127 47.3462 105.34 44.6934 101.785 44.6934L101.785 44.6939ZM97.9071 50.743C97.8915 50.2324 97.9794 49.7239 98.1654 49.2482C98.3514 48.7724 98.6318 48.3392 98.9896 47.9746C99.3474 47.61 99.7753 47.3216 100.247 47.1266C100.72 46.9317 101.226 46.8344 101.737 46.8404C102.253 46.8385 102.765 46.9395 103.242 47.1375C103.718 47.3356 104.151 47.6267 104.514 47.9937C104.877 48.3608 105.163 48.7966 105.356 49.2755C105.549 49.7545 105.644 50.2671 105.636 50.7833V50.8288C105.648 51.3387 105.557 51.8457 105.368 52.3194C105.179 52.7931 104.896 53.2237 104.536 53.5852C104.176 53.9466 103.747 54.2316 103.274 54.4229C102.801 54.6141 102.295 54.7077 101.785 54.6981C101.272 54.7008 100.763 54.6012 100.289 54.4049C99.8148 54.2087 99.3846 53.9199 99.0234 53.5553C98.6623 53.1907 98.3775 52.7578 98.1857 52.2818C97.9939 51.8058 97.8991 51.2964 97.9066 50.7833L97.9071 50.743Z" fill="#1D1D1B"/>
<path d="M123.046 44.6953C122.278 44.6707 121.514 44.8284 120.818 45.1556C120.122 45.4827 119.513 45.97 119.041 46.5775C118.633 45.9728 118.076 45.4825 117.425 45.1531C116.773 44.8237 116.049 44.6662 115.319 44.6953C114.696 44.6767 114.076 44.7914 113.501 45.0317C112.925 45.272 112.408 45.6324 111.983 46.0887V46.0029C111.97 45.6856 111.834 45.3857 111.605 45.1658C111.376 44.9459 111.071 44.8232 110.753 44.8232C110.436 44.8232 110.13 44.9459 109.901 45.1658C109.672 45.3857 109.537 45.6856 109.523 46.0029V55.5495C109.526 55.7091 109.56 55.8666 109.624 56.0128C109.688 56.159 109.781 56.291 109.896 56.4012C110.011 56.5114 110.147 56.5976 110.296 56.6548C110.445 56.712 110.604 56.739 110.764 56.7343C110.922 56.7392 111.08 56.7122 111.228 56.6548C111.376 56.5974 111.51 56.5108 111.624 56.4003C111.738 56.2897 111.828 56.1575 111.889 56.0113C111.951 55.8651 111.982 55.7081 111.982 55.5495V50.0046C111.982 48.2008 113.166 46.8868 114.803 46.8868C116.447 46.8868 117.392 47.9529 117.392 49.8081V55.5495C117.392 55.7076 117.424 55.8641 117.485 56.0098C117.547 56.1554 117.637 56.2873 117.75 56.3977C117.863 56.5081 117.997 56.5948 118.144 56.6526C118.291 56.7104 118.449 56.7382 118.607 56.7343C118.766 56.7387 118.924 56.7113 119.073 56.6539C119.221 56.5966 119.357 56.5102 119.471 56.4C119.586 56.2898 119.678 56.1578 119.741 56.0118C119.804 55.8658 119.838 55.7087 119.84 55.5495V49.9358C119.84 48.1182 120.961 46.8884 122.621 46.8884C124.304 46.8884 125.233 47.9412 125.233 49.8542V55.5495C125.244 55.8667 125.378 56.1671 125.606 56.3875C125.835 56.6078 126.14 56.7309 126.457 56.7309C126.775 56.7309 127.08 56.6078 127.308 56.3875C127.537 56.1671 127.671 55.8667 127.682 55.5495V49.4644C127.682 46.5214 125.909 44.6953 123.045 44.6953" fill="#1D1D1B"/>
<path d="M134.368 41.2409C134.07 41.2417 133.785 41.3583 133.573 41.566C133.361 41.7737 133.238 42.0561 133.23 42.3531V55.858C133.243 56.154 133.37 56.4336 133.584 56.6385C133.798 56.8435 134.082 56.9579 134.379 56.9579C134.675 56.9579 134.96 56.8435 135.174 56.6385C135.388 56.4336 135.514 56.154 135.527 55.858V42.3531C135.52 42.0521 135.394 41.766 135.177 41.5575C134.96 41.3491 134.669 41.2352 134.368 41.2409Z" fill="#1D1D1B"/>
<path d="M144.35 45.0067C143.648 44.9825 142.95 45.1167 142.308 45.3992C141.665 45.6817 141.094 46.1052 140.638 46.6384V46.2232C140.627 45.9319 140.504 45.6563 140.294 45.4541C140.084 45.252 139.804 45.139 139.512 45.139C139.221 45.139 138.941 45.252 138.731 45.4541C138.521 45.6563 138.398 45.9319 138.387 46.2232V55.8503C138.389 55.997 138.42 56.1417 138.479 56.2761C138.538 56.4104 138.623 56.5316 138.729 56.6326C138.836 56.7335 138.961 56.8121 139.099 56.8638C139.236 56.9154 139.382 56.9391 139.529 56.9333C139.673 56.938 139.818 56.9133 139.953 56.8609C140.088 56.8085 140.211 56.7294 140.315 56.6283C140.419 56.5272 140.501 56.4062 140.557 56.2725C140.613 56.1388 140.641 55.9952 140.641 55.8503V50.2318C140.621 49.8033 140.69 49.3754 140.845 48.9753C140.999 48.5753 141.236 48.2119 141.539 47.9083C141.842 47.6048 142.205 47.3678 142.605 47.2126C143.004 47.0573 143.432 46.987 143.861 47.0065C145.739 47.0065 146.813 48.1319 146.813 50.1009V55.8508C146.815 55.9971 146.847 56.1414 146.905 56.2754C146.964 56.4094 147.049 56.5304 147.155 56.6312C147.261 56.7321 147.386 56.8108 147.522 56.8627C147.659 56.9147 147.805 56.9389 147.951 56.9339C148.096 56.9376 148.24 56.9123 148.374 56.8596C148.509 56.8068 148.632 56.7277 148.736 56.6268C148.84 56.5259 148.923 56.4053 148.979 56.2721C149.036 56.1388 149.065 55.9956 149.066 55.8508V49.699C149.066 46.8492 147.212 45.0072 144.352 45.0072" fill="#1D1D1B"/>
<path d="M161.714 40.6008C161.569 40.5961 161.425 40.6207 161.29 40.6729C161.155 40.7252 161.032 40.8041 160.928 40.9049C160.825 41.0057 160.742 41.1264 160.686 41.2598C160.63 41.3932 160.601 41.5364 160.602 41.6811V46.9189C160.085 46.3182 159.442 45.8387 158.719 45.5142C157.996 45.1898 157.21 45.0284 156.418 45.0415C155.636 45.0381 154.862 45.193 154.142 45.4969C153.422 45.8008 152.771 46.2474 152.228 46.8098C151.686 47.3721 151.262 48.0386 150.984 48.769C150.706 49.4993 150.579 50.2785 150.61 51.0594V51.1012C150.58 51.8806 150.709 52.658 150.988 53.3864C151.266 54.1148 151.69 54.7791 152.233 55.3393C152.776 55.8994 153.426 56.3438 154.146 56.6455C154.865 56.9472 155.638 57.1 156.418 57.0947C157.219 57.1064 158.012 56.9351 158.737 56.5939C159.462 56.2527 160.1 55.7505 160.602 55.1257V55.8846C160.603 56.0309 160.635 56.1754 160.693 56.3095C160.752 56.4436 160.837 56.5646 160.943 56.6655C161.049 56.7663 161.174 56.8449 161.311 56.8966C161.448 56.9483 161.593 56.9721 161.74 56.9666C161.884 56.9703 162.028 56.9451 162.163 56.8924C162.297 56.8398 162.42 56.7607 162.524 56.6599C162.627 56.5591 162.71 56.4385 162.766 56.3054C162.822 56.1723 162.852 56.0292 162.852 55.8846V41.6811C162.849 41.5351 162.818 41.391 162.759 41.2572C162.7 41.1235 162.615 41.0029 162.509 40.9023C162.403 40.8017 162.278 40.7233 162.141 40.6715C162.005 40.6197 161.86 40.5957 161.714 40.6008ZM160.67 51.0392V51.0848C160.681 52.1422 160.271 53.1605 159.532 53.9169C158.793 54.6732 157.785 55.106 156.728 55.1204C156.208 55.1176 155.694 55.0098 155.217 54.8033C154.74 54.5969 154.31 54.2962 153.952 53.9193C153.594 53.5423 153.316 53.0969 153.135 52.6098C152.953 52.1227 152.872 51.604 152.896 51.0848V51.0408C152.896 48.6709 154.478 47.019 156.728 47.019C157.252 47.0186 157.772 47.1229 158.255 47.3258C158.739 47.5287 159.177 47.8262 159.545 48.2008C159.912 48.5754 160.201 49.0196 160.394 49.5073C160.587 49.995 160.681 50.5164 160.67 51.0408" fill="#1D1D1B"/>
<path d="M170.856 45.0049C167.308 45.0049 164.531 47.6561 164.531 51.0476V51.0869C164.531 54.4435 167.289 57.0804 170.812 57.0804C174.364 57.0804 177.154 54.4281 177.154 51.0476V51.0027C177.154 47.637 174.386 45.0049 170.857 45.0049H170.856ZM166.822 51.0027C166.807 50.4721 166.899 49.9438 167.093 49.4498C167.288 48.9559 167.58 48.5065 167.953 48.1287C168.326 47.7509 168.772 47.4527 169.263 47.2519C169.755 47.0512 170.282 46.9521 170.812 46.9607C171.348 46.9573 171.879 47.061 172.374 47.2657C172.869 47.4704 173.319 47.772 173.695 48.1527C174.072 48.5335 174.369 48.9857 174.569 49.4828C174.769 49.98 174.867 50.512 174.859 51.0476V51.0869C174.871 51.6166 174.776 52.1435 174.58 52.6356C174.384 53.1278 174.09 53.5751 173.716 53.9506C173.342 54.3261 172.896 54.622 172.404 54.8205C171.913 55.019 171.387 55.1159 170.857 55.1055C170.324 55.1093 169.796 55.0068 169.303 54.804C168.81 54.6011 168.363 54.302 167.987 53.9241C167.611 53.5462 167.315 53.0972 167.115 52.6033C166.915 52.1093 166.815 51.5805 166.822 51.0476V51.0027Z" fill="#1D1D1B"/>
<path d="M184.772 45.0065C184.07 44.9831 183.372 45.1176 182.73 45.4C182.087 45.6824 181.516 46.1055 181.059 46.6382V46.223C181.048 45.9319 180.925 45.6564 180.715 45.4543C180.505 45.2523 180.225 45.1394 179.934 45.1394C179.642 45.1394 179.362 45.2523 179.153 45.4543C178.943 45.6564 178.82 45.9319 178.809 46.223V55.8502C178.81 55.9965 178.842 56.1409 178.9 56.275C178.959 56.4091 179.043 56.5301 179.149 56.631C179.255 56.7319 179.38 56.8106 179.517 56.8625C179.654 56.9144 179.799 56.9384 179.946 56.9332C180.091 56.9387 180.235 56.9147 180.371 56.8626C180.506 56.8105 180.63 56.7315 180.734 56.6302C180.838 56.5289 180.92 56.4075 180.976 56.2734C181.032 56.1393 181.059 55.9953 181.058 55.8502V50.2316C181.038 49.8027 181.108 49.3744 181.263 48.9741C181.419 48.5737 181.656 48.2102 181.959 47.9066C182.263 47.6031 182.627 47.3663 183.027 47.2112C183.427 47.0562 183.856 46.9864 184.285 47.0063C186.158 47.0063 187.235 48.1317 187.235 50.1008V55.8507C187.236 55.9968 187.267 56.1411 187.325 56.2751C187.383 56.4091 187.468 56.5301 187.573 56.631C187.679 56.7319 187.804 56.8107 187.94 56.8627C188.077 56.9147 188.222 56.9388 188.368 56.9338C188.513 56.9381 188.658 56.9132 188.793 56.8608C188.928 56.8083 189.051 56.7292 189.155 56.6282C189.26 56.5272 189.342 56.4063 189.399 56.2728C189.455 56.1392 189.484 55.9957 189.484 55.8507V49.6988C189.484 46.849 187.631 45.0071 184.771 45.0071" fill="#1D1D1B"/>
<path d="M196.812 45.0049C196.032 45.0095 195.261 45.1697 194.543 45.4762C193.826 45.7828 193.177 46.2294 192.634 46.79C192.092 47.3505 191.666 48.0138 191.384 48.7408C191.101 49.4678 190.966 50.244 190.986 51.0238V51.0651C190.97 51.8628 191.116 52.6555 191.415 53.3952C191.714 54.1349 192.16 54.8063 192.725 55.3688C193.291 55.9312 193.965 56.373 194.707 56.6675C195.448 56.962 196.242 57.103 197.039 57.082C197.877 57.11 198.712 56.9705 199.495 56.6715C200.278 56.3724 200.993 55.92 201.599 55.3407C201.706 55.2534 201.792 55.144 201.852 55.0203C201.912 54.8965 201.945 54.7612 201.948 54.6236C201.943 54.4935 201.913 54.3656 201.858 54.2473C201.804 54.1289 201.727 54.0225 201.632 53.9339C201.536 53.8454 201.424 53.7765 201.302 53.7313C201.18 53.686 201.05 53.6653 200.92 53.6703C200.679 53.6744 200.447 53.7624 200.264 53.9192C199.401 54.7236 198.26 55.1636 197.081 55.1474C196.157 55.1727 195.258 54.8537 194.557 54.2524C193.856 53.651 193.403 52.8103 193.288 51.894H201.395C201.672 51.8985 201.939 51.7935 202.139 51.6018C202.339 51.4101 202.455 51.1472 202.462 50.8702C202.462 47.9601 200.524 45.0065 196.813 45.0065L196.812 45.0049ZM193.288 50.1786C193.601 48.2275 194.996 46.9014 196.769 46.9014C198.956 46.9014 199.953 48.54 200.185 50.1786H193.288Z" fill="#1D1D1B"/>
<path d="M208.648 50.0084L208.603 49.9994C207.182 49.5853 205.849 49.195 205.849 48.3381V48.2989C205.849 47.4896 206.643 46.9378 207.828 46.9378C208.85 46.969 209.848 47.2524 210.734 47.7629C210.894 47.8396 211.069 47.8794 211.247 47.8794C211.508 47.889 211.763 47.7944 211.955 47.6165C212.146 47.4385 212.259 47.1917 212.269 46.9304C212.265 46.7447 212.212 46.5633 212.115 46.4051C212.018 46.2468 211.88 46.1173 211.716 46.0301C210.529 45.4121 209.215 45.0789 207.877 45.0566C205.393 45.0566 203.659 46.4596 203.659 48.4726V48.5181C203.659 50.7917 205.989 51.4225 207.688 51.8827C209.229 52.2947 210.397 52.6819 210.397 53.5949V53.6383C210.397 54.5455 209.542 55.1477 208.254 55.1477C206.991 55.1237 205.762 54.7296 204.72 54.0144C204.552 53.8957 204.349 53.8346 204.143 53.8401C203.932 53.828 203.723 53.8856 203.548 54.004C203.373 54.1224 203.242 54.2951 203.175 54.4953C203.108 54.6956 203.108 54.9124 203.177 55.1123C203.245 55.3122 203.377 55.4841 203.552 55.6016C204.918 56.5181 206.52 57.0173 208.165 57.0384C210.795 57.0384 212.56 55.6053 212.56 53.4662V53.4275C212.56 51.1333 210.207 50.4618 208.653 50.0106" fill="#1D1D1B"/>
<path d="M215.6 45.1383C215.31 45.1348 215.029 45.2467 214.821 45.4495C214.612 45.6523 214.493 45.9295 214.488 46.2203V55.8474C214.49 55.9935 214.521 56.1378 214.579 56.2718C214.638 56.4057 214.722 56.5267 214.828 56.6275C214.934 56.7283 215.058 56.8069 215.195 56.8588C215.332 56.9107 215.477 56.9347 215.623 56.9295C215.768 56.9347 215.913 56.9105 216.049 56.8584C216.184 56.8063 216.308 56.7274 216.412 56.6263C216.516 56.5253 216.599 56.4041 216.655 56.2703C216.712 56.1365 216.74 55.9926 216.74 55.8474V46.2203C216.737 46.0742 216.706 45.93 216.647 45.7961C216.589 45.6622 216.504 45.5414 216.398 45.4406C216.292 45.3399 216.167 45.2613 216.03 45.2094C215.894 45.1575 215.748 45.1333 215.602 45.1383" fill="#1D1D1B"/>
<path d="M227.874 46.3869C226.974 45.5305 225.65 45.0899 223.941 45.0899C222.601 45.0756 221.273 45.3387 220.039 45.8626C219.823 45.9439 219.643 46.1002 219.532 46.303C219.421 46.5058 219.387 46.7417 219.435 46.9677C219.484 47.1938 219.611 47.3949 219.796 47.5346C219.98 47.6743 220.208 47.7432 220.439 47.7289C220.578 47.7258 220.717 47.6993 220.848 47.6505C221.766 47.2486 222.758 47.0421 223.761 47.0441C225.219 47.0441 226.953 47.5298 226.953 49.8203V49.8797C225.873 49.6074 224.763 49.4757 223.65 49.4877C220.423 49.4877 218.422 50.9521 218.422 53.3131V53.3602C218.422 55.7879 220.734 57.0574 223.019 57.0574C223.741 57.0806 224.461 56.9603 225.136 56.7031C225.812 56.446 226.429 56.0573 226.953 55.5596V55.9065C226.954 56.0466 226.984 56.1848 227.041 56.3129C227.098 56.4409 227.18 56.5563 227.282 56.6518C227.384 56.7474 227.505 56.8212 227.637 56.8689C227.768 56.9166 227.908 56.9371 228.048 56.9292C228.19 56.9343 228.332 56.9105 228.465 56.8592C228.597 56.8079 228.718 56.7303 228.82 56.6309C228.922 56.5316 229.003 56.4125 229.057 56.2811C229.112 56.1497 229.139 56.0086 229.138 55.8663V49.8018C229.176 49.1759 229.084 48.5489 228.866 47.9608C228.648 47.3728 228.31 46.8367 227.873 46.3869H227.874ZM226.984 51.6189V52.4985C226.984 54.0678 225.422 55.2557 223.356 55.2557C222.077 55.2557 220.696 54.6381 220.696 53.2898V53.2537C220.696 51.9689 221.865 51.2063 223.826 51.2063C224.892 51.2064 225.954 51.3453 226.984 51.6194" fill="#1D1D1B"/>
<path d="M56.0691 69.8408C56.0707 69.6919 56.0897 69.5437 56.1257 69.3992L56.7846 66.9338H56.202L56.3508 66.3836H56.945L57.2808 65.1094H57.9025L57.5588 66.3836H58.8828L58.7414 66.9338H57.4121L56.7544 69.3674C56.7408 69.4693 56.7325 69.5718 56.7295 69.6746C56.7295 69.9717 56.9477 70.1088 57.3052 70.1088C57.5162 70.1047 57.7244 70.0599 57.9184 69.977L57.7595 70.5484C57.5483 70.6351 57.3216 70.678 57.0933 70.6744C56.4869 70.6744 56.0664 70.3853 56.0664 69.8414" fill="#1D1D1B"/>
<path d="M57.0979 70.747C56.4221 70.747 56 70.3986 56 69.8398C56.002 69.6847 56.0217 69.5303 56.0588 69.3797L56.6943 67.0043H56.1117L56.2987 66.3111H56.8919L57.2271 65.04H57.9977L57.6524 66.3111H58.9801L58.7995 67.0043H57.4712L56.8283 69.3833C56.8153 69.4796 56.8075 69.5765 56.805 69.6736C56.805 69.9145 56.9755 70.0374 57.3097 70.0374C57.5119 70.0329 57.7113 69.9894 57.897 69.9093L58.03 69.8563L57.8224 70.5977L57.7901 70.6115C57.5705 70.7022 57.3349 70.7474 57.0973 70.7444L57.0979 70.747ZM56.2976 66.8598H56.8765L56.1981 69.413C56.1631 69.5516 56.1442 69.6937 56.1419 69.8367C56.1419 70.3133 56.5005 70.5993 57.0952 70.5993C57.3028 70.603 57.5091 70.5656 57.7021 70.4892L57.8144 70.0883C57.6512 70.145 57.4799 70.1752 57.3071 70.1778C56.743 70.1778 56.6599 69.86 56.6599 69.6699C56.6616 69.5635 56.6699 69.4574 56.6848 69.3521L57.3584 66.8582H58.6877L58.7937 66.4498H57.4681L57.8128 65.1762H57.3362L56.9999 66.4498H56.4078L56.2976 66.8598Z" fill="#1D1D1B"/>
<path d="M60.4574 64.6455H61.0797L60.4383 67.061C60.6092 66.8315 60.8296 66.6434 61.0831 66.5106C61.3366 66.3779 61.6167 66.3039 61.9027 66.2942C62.0797 66.2792 62.2578 66.3022 62.4251 66.3619C62.5924 66.4215 62.745 66.5163 62.8726 66.6398C63.0002 66.7633 63.0999 66.9128 63.1649 67.0781C63.2299 67.2434 63.2587 67.4207 63.2495 67.598C63.239 67.8199 63.2024 68.0399 63.1404 68.2532L62.5197 70.5966H61.89L62.5303 68.2055C62.5708 68.0509 62.592 67.8919 62.5933 67.732C62.5996 67.6092 62.5789 67.4865 62.5326 67.3726C62.4864 67.2586 62.4158 67.1562 62.3257 67.0724C62.2357 66.9887 62.1284 66.9257 62.0114 66.8879C61.8944 66.85 61.7705 66.8382 61.6485 66.8534C61.283 66.8888 60.9384 67.0399 60.6647 67.2845C60.391 67.5292 60.2024 67.8548 60.1264 68.214L59.4882 70.5972H58.8633L60.4574 64.6455Z" fill="#1D1D1B"/>
<path d="M62.5753 70.6708H61.7962L62.4614 68.188C62.4975 68.0384 62.5172 67.8854 62.5202 67.7315C62.5262 67.6182 62.5072 67.505 62.4645 67.3998C62.4218 67.2947 62.3565 67.2002 62.2732 67.1231C62.1899 67.0461 62.0906 66.9884 61.9825 66.954C61.8743 66.9197 61.7599 66.9095 61.6474 66.9244C61.2972 66.9594 60.9673 67.1051 60.7057 67.3405C60.4441 67.5758 60.2643 67.8886 60.1926 68.2331L59.5412 70.6693H58.7695L58.7934 70.5792L60.4055 64.5698H61.1729L60.5781 66.8079C60.748 66.6261 60.9528 66.4806 61.1803 66.3801C61.4079 66.2795 61.6534 66.226 61.9021 66.2227C62.0886 66.2066 62.2763 66.2307 62.4526 66.2934C62.6289 66.3561 62.7897 66.4558 62.9241 66.586C63.0586 66.7162 63.1634 66.8738 63.2317 67.048C63.3 67.2222 63.3301 67.4091 63.3199 67.596C63.3086 67.8241 63.2717 68.0503 63.2097 68.2701L62.5753 70.6708ZM61.9853 70.5268H62.4662L63.0747 68.2336C63.1345 68.0266 63.17 67.8133 63.1806 67.598C63.1897 67.4298 63.1625 67.2615 63.1009 67.1046C63.0392 66.9478 62.9445 66.8061 62.8233 66.689C62.702 66.572 62.557 66.4824 62.3981 66.4263C62.2391 66.3703 62.07 66.349 61.9021 66.3641C61.6262 66.3741 61.3561 66.4459 61.1116 66.5743C60.8672 66.7026 60.6546 66.8842 60.4897 67.1055L60.2884 67.3301L60.9875 64.7101H60.5151L58.956 70.522H59.4326L60.0554 68.1918C60.1361 67.8173 60.3342 67.4783 60.6208 67.224C60.9074 66.9698 61.2675 66.8137 61.649 66.7782C61.7803 66.7632 61.9134 66.7769 62.0389 66.8184C62.1645 66.8598 62.2796 66.928 62.3762 67.0182C62.4728 67.1084 62.5487 67.2186 62.5986 67.341C62.6485 67.4634 62.6713 67.5952 62.6653 67.7273C62.6626 67.8934 62.6406 68.0588 62.5996 68.2198L61.9853 70.5268Z" fill="#1D1D1B"/>
<path d="M64.7361 68.8766C64.7238 69.0471 64.7484 69.2183 64.8081 69.3786C64.8678 69.5388 64.9613 69.6843 65.0822 69.8053C65.2031 69.9262 65.3486 70.0196 65.5089 70.0794C65.6691 70.1391 65.8403 70.1636 66.0109 70.1513C66.4902 70.1521 66.953 69.9759 67.3105 69.6566L67.64 70.0687C67.1849 70.4783 66.5929 70.7026 65.9807 70.6973C65.7371 70.7157 65.4924 70.6825 65.2625 70.5999C65.0327 70.5173 64.8228 70.3871 64.6467 70.2179C64.4705 70.0487 64.3321 69.8442 64.2404 69.6178C64.1486 69.3914 64.1057 69.1482 64.1144 68.9041C64.1108 68.2373 64.3635 67.5946 64.8204 67.1088C65.2772 66.6231 65.9033 66.3314 66.5691 66.2942C66.7858 66.2792 67.0032 66.3106 67.2068 66.3862C67.4104 66.4619 67.5955 66.5801 67.7498 66.7329C67.9041 66.8858 68.0241 67.0698 68.1017 67.2727C68.1792 67.4756 68.2127 67.6927 68.1997 67.9095C68.1978 68.1913 68.144 68.4702 68.0409 68.7325H64.7457C64.7374 68.78 64.7341 68.8283 64.7356 68.8766H64.7361ZM67.5536 68.2246C67.5745 68.12 67.5846 68.0135 67.5838 67.9068C67.5974 67.7638 67.5798 67.6196 67.5323 67.484C67.4848 67.3484 67.4084 67.2247 67.3085 67.1215C67.2086 67.0182 67.0875 66.9378 66.9535 66.8859C66.8196 66.834 66.6759 66.8117 66.5326 66.8206C66.1366 66.8397 65.7575 66.9866 65.4519 67.2392C65.1464 67.4918 64.931 67.8366 64.8378 68.2219L67.5536 68.2246Z" fill="#1D1D1B"/>
<path d="M65.9796 70.7708C65.7263 70.79 65.472 70.7554 65.2331 70.6693C64.9942 70.5832 64.7762 70.4475 64.5934 70.2712C64.4107 70.0949 64.2673 69.8819 64.1727 69.6463C64.078 69.4107 64.0343 69.1577 64.0444 68.9039C64.0428 68.2194 64.3035 67.5603 64.7729 67.062C65.2422 66.5637 65.8846 66.2641 66.5679 66.2247C66.7936 66.2108 67.0197 66.2448 67.2314 66.3243C67.4431 66.4038 67.6356 66.5271 67.7963 66.6861C67.9571 66.8451 68.0825 67.0363 68.1643 67.2471C68.2461 67.4578 68.2825 67.6836 68.2712 67.9094C68.2691 68.1995 68.2136 68.4867 68.1075 68.7567L68.0916 68.8002H64.8081C64.8081 68.8261 64.8081 68.8531 64.8081 68.8748C64.797 69.0356 64.8205 69.1969 64.8771 69.3478C64.9336 69.4987 65.0219 69.6357 65.1358 69.7497C65.2498 69.8636 65.3869 69.9517 65.5378 70.0082C65.6887 70.0647 65.85 70.0882 66.0108 70.0771C66.4738 70.0777 66.9209 69.908 67.267 69.6004L67.3232 69.5543L67.7384 70.076L67.6854 70.1226C67.2188 70.5431 66.6119 70.7741 65.9838 70.7703L65.9796 70.7708ZM66.5722 66.3661C65.9259 66.4044 65.3189 66.6887 64.8757 67.1606C64.4325 67.6324 64.1867 68.2561 64.189 68.9034C64.1804 69.138 64.2216 69.3718 64.3097 69.5893C64.3978 69.8069 64.5309 70.0034 64.7003 70.1659C64.8696 70.3284 65.0714 70.4533 65.2925 70.5324C65.5135 70.6114 65.7487 70.6429 65.9827 70.6246C66.554 70.6299 67.1078 70.4282 67.5419 70.0569L67.3014 69.7561C66.9409 70.0603 66.4836 70.2258 66.0119 70.2227C65.832 70.235 65.6516 70.2087 65.4827 70.1453C65.3139 70.082 65.1607 69.9832 65.0333 69.8556C64.9059 69.728 64.8073 69.5746 64.7443 69.4057C64.6812 69.2368 64.6551 69.0563 64.6677 68.8764C64.6662 68.8232 64.67 68.77 64.6788 68.7176L64.6942 68.6614H67.9963C68.0843 68.4208 68.1304 68.1667 68.1324 67.9104C68.1456 67.7029 68.1142 67.4949 68.0402 67.3006C67.9662 67.1062 67.8514 66.93 67.7036 66.7838C67.5557 66.6376 67.3782 66.5248 67.183 66.453C66.9878 66.3812 66.7795 66.3521 66.5722 66.3677V66.3661ZM67.615 68.2976H64.7435L64.771 68.2049C64.8669 67.8037 65.091 67.4447 65.4094 67.1825C65.7277 66.9202 66.123 66.7689 66.5351 66.7516C66.6882 66.7421 66.8415 66.7658 66.9845 66.8212C67.1275 66.8766 67.2569 66.9623 67.3636 67.0724C67.4703 67.1825 67.552 67.3144 67.6029 67.4591C67.6537 67.6038 67.6727 67.7577 67.6584 67.9104C67.6591 68.0213 67.6487 68.1321 67.6272 68.2409L67.615 68.2976ZM64.9399 68.1535H67.4958C67.5084 68.0731 67.5138 67.9918 67.5122 67.9104C67.5254 67.777 67.5095 67.6424 67.4656 67.5157C67.4217 67.3891 67.3508 67.2735 67.2578 67.1769C67.1649 67.0803 67.0521 67.0051 66.9272 66.9563C66.8023 66.9076 66.6684 66.8866 66.5346 66.8947C66.1699 66.9096 65.8194 67.0393 65.5329 67.2654C65.2464 67.4915 65.0387 67.8023 64.9394 68.1535" fill="#1D1D1B"/>
<path d="M71.7539 66.3825H72.4L72.6156 69.7423L74.6524 66.3677H75.1757L75.4092 69.7423L77.4392 66.3825H78.0954L75.4701 70.6347H74.9151L74.6699 67.3035L72.6405 70.6347H72.0892L71.7539 66.3825Z" fill="#1D1D1B"/>
<path d="M75.5085 70.7065H74.8481L74.6151 67.5289L72.6799 70.7065H72.0243L71.6758 66.3108H72.4665L72.6709 69.5086L74.6124 66.2949H75.2421L75.4672 69.5122L77.4008 66.3108H78.2238L75.5085 70.7065ZM74.9789 70.5625H75.428L77.9643 66.4538H77.4771L75.3528 69.9703L75.1071 66.4384H74.6898L72.5555 69.9725L72.3298 66.4538H71.8278L72.1545 70.5625H72.5978L74.7242 67.0766L74.9789 70.5625Z" fill="#1D1D1B"/>
<path d="M78.1738 68.8015C78.1859 68.1452 78.4499 67.5188 78.9112 67.0518C79.3725 66.5849 79.9957 66.3133 80.6518 66.2933C80.9048 66.2782 81.158 66.3163 81.3953 66.4051C81.6327 66.4939 81.8487 66.6315 82.0296 66.8089C82.2105 66.9863 82.3522 67.1997 82.4455 67.4353C82.5389 67.6708 82.5818 67.9234 82.5716 68.1765C82.5596 68.8346 82.2954 69.463 81.8335 69.932C81.3716 70.4009 80.7472 70.6745 80.0894 70.6964C79.8358 70.7108 79.582 70.6717 79.3444 70.5818C79.1069 70.4919 78.8908 70.3531 78.7103 70.1744C78.5297 69.9958 78.3887 69.7812 78.2963 69.5446C78.2038 69.308 78.1621 69.0547 78.1738 68.8009V68.8015ZM81.934 68.1972C81.9494 68.0181 81.926 67.8377 81.8654 67.6684C81.8047 67.4991 81.7083 67.345 81.5826 67.2164C81.4569 67.0879 81.3049 66.988 81.1371 66.9235C80.9692 66.8591 80.7894 66.8316 80.61 66.843C80.1201 66.8825 79.6629 67.1043 79.3286 67.4646C78.9943 67.8248 78.8073 68.2973 78.8046 68.7888C78.7892 68.9671 78.8127 69.1467 78.8733 69.3151C78.934 69.4836 79.0303 69.6369 79.1558 69.7646C79.2813 69.8923 79.4329 69.9913 79.6003 70.0549C79.7676 70.1185 79.9468 70.1451 80.1254 70.1329C80.615 70.0969 81.073 69.8776 81.408 69.5188C81.7431 69.16 81.9305 68.6881 81.9329 68.1972" fill="#1D1D1B"/>
<path d="M80.0895 70.7709C79.8263 70.7844 79.5633 70.7429 79.3172 70.649C79.071 70.5551 78.8471 70.4108 78.6598 70.2255C78.4726 70.0402 78.326 69.818 78.2294 69.5728C78.1329 69.3277 78.0886 69.0651 78.0992 68.8019C78.1125 68.1267 78.3847 67.4824 78.8596 67.0023C79.3345 66.5221 79.9758 66.2428 80.6508 66.2221C80.913 66.2076 81.1753 66.2479 81.4211 66.3405C81.6668 66.4331 81.8905 66.576 82.0778 66.76C82.2652 66.9439 82.4121 67.165 82.5092 67.409C82.6063 67.6529 82.6514 67.9145 82.6416 68.1769C82.6297 68.8541 82.3582 69.5009 81.8833 69.9837C81.4085 70.4666 80.7663 70.7488 80.0895 70.772V70.7709ZM80.6508 66.3657C80.0142 66.3867 79.4098 66.651 78.9621 67.1042C78.5144 67.5574 78.2575 68.165 78.2443 68.8019C78.2343 69.0459 78.2754 69.2893 78.3649 69.5165C78.4544 69.7437 78.5904 69.9497 78.7642 70.1213C78.9379 70.2929 79.1456 70.4264 79.3739 70.5131C79.6022 70.5998 79.8461 70.6378 80.09 70.6247C80.7289 70.6041 81.3354 70.3386 81.7839 69.8829C82.2323 69.4273 82.4882 68.8166 82.4986 68.1774C82.5104 67.9333 82.4703 67.6894 82.3812 67.4618C82.292 67.2342 82.1557 67.0279 81.9812 66.8567C81.8067 66.6855 81.5979 66.5532 81.3686 66.4684C81.1394 66.3836 80.8947 66.3482 80.6508 66.3646V66.3657ZM80.1255 70.2048C79.9377 70.2166 79.7495 70.1879 79.5738 70.1207C79.398 70.0534 79.2387 69.9493 79.1067 69.8151C78.9748 69.681 78.8732 69.52 78.8088 69.3432C78.7444 69.1664 78.7188 68.9778 78.7337 68.7902C78.7352 68.2799 78.9291 67.789 79.2767 67.4154C79.6244 67.0419 80.1001 66.8132 80.609 66.7751C80.7976 66.7637 80.9864 66.7931 81.1626 66.8611C81.3388 66.9291 81.4984 67.0341 81.6305 67.1692C81.7626 67.3042 81.8641 67.4661 81.9282 67.6438C81.9922 67.8215 82.0174 68.0109 82.0019 68.1992C81.9994 68.7085 81.8047 69.1982 81.4567 69.5702C81.1087 69.9421 80.633 70.169 80.1249 70.2053L80.1255 70.2048ZM80.6085 66.9175C80.1367 66.9545 79.6962 67.1678 79.3746 67.5149C79.053 67.862 78.8739 68.3176 78.873 68.7908C78.858 68.96 78.8799 69.1304 78.9372 69.2903C78.9945 69.4502 79.0858 69.5958 79.2048 69.717C79.3238 69.8382 79.4678 69.9321 79.6266 69.9923C79.7855 70.0524 79.9555 70.0774 80.1249 70.0655C80.5962 70.0304 81.0369 69.8187 81.3588 69.4726C81.6807 69.1266 81.86 68.6718 81.861 68.1992C81.8768 68.0294 81.8556 67.8582 81.7987 67.6975C81.7417 67.5368 81.6505 67.3904 81.5314 67.2684C81.4122 67.1465 81.2679 67.0519 81.1085 66.9913C80.9492 66.9307 80.7785 66.9055 80.6085 66.9175Z" fill="#1D1D1B"/>
<path d="M84.2371 66.3826H84.8657L84.5829 67.4841C84.781 67.1267 85.0715 66.8292 85.4241 66.6227C85.7767 66.4162 86.1783 66.3084 86.5869 66.3106L86.4117 66.9874H86.3656C85.4414 66.9874 84.5199 67.6563 84.1873 68.9353L83.7414 70.5956H83.1133L84.2371 66.3826Z" fill="#1D1D1B"/>
<path d="M83.7967 70.6703H83.0234L84.1838 66.3112H84.9597L84.7409 67.1585C84.9385 66.8838 85.1961 66.6578 85.4942 66.4976C85.7923 66.3375 86.123 66.2474 86.4611 66.2344C86.5024 66.2344 86.5485 66.2344 86.593 66.2392L86.6793 66.2455L86.4674 67.0563H86.3668C85.3871 67.0563 84.5588 67.7978 84.2585 68.9486L83.7967 70.6703ZM83.2062 70.5258H83.6876L84.1187 68.9147C84.4364 67.7056 85.3124 66.9213 86.3562 66.9155L86.495 66.3795C86.1137 66.3965 85.7431 66.5104 85.4181 66.7104C85.0931 66.9105 84.8245 67.1901 84.6377 67.5229L84.4131 67.8476L84.7743 66.4542H84.2902L83.2062 70.5258Z" fill="#1D1D1B"/>
<path d="M88.052 64.6455H88.6775L87.0797 70.5972H86.4531L88.052 64.6455Z" fill="#1D1D1B"/>
<path d="M87.1363 70.6707H86.3594L88.0012 64.5713H88.7696L88.7489 64.6597L87.1363 70.6707ZM86.5469 70.5267H87.0267L88.5858 64.7148H88.1092L86.5469 70.5267Z" fill="#1D1D1B"/>
<path d="M88.8155 68.913C88.7877 68.2537 89.0199 67.6098 89.462 67.1199C89.9041 66.6299 90.5209 66.333 91.1796 66.2931C91.5202 66.2768 91.857 66.3696 92.1412 66.5579C92.4254 66.7462 92.6422 67.0202 92.7599 67.3401L93.4776 64.6455H94.1073L92.5185 70.5966H91.8829L92.0757 69.8812C91.8873 70.1266 91.6468 70.327 91.3715 70.4682C91.0961 70.6093 90.7929 70.6876 90.4837 70.6973C90.2542 70.6985 90.0268 70.6523 89.816 70.5615C89.6051 70.4708 89.4153 70.3375 89.2584 70.1699C89.1015 70.0023 88.981 69.8041 88.9043 69.5877C88.8276 69.3714 88.7965 69.1415 88.8128 68.9125L88.8155 68.913ZM92.5418 68.152C92.5469 67.9787 92.5165 67.8063 92.4525 67.6452C92.3886 67.4841 92.2923 67.3378 92.1697 67.2152C92.047 67.0927 91.9007 66.9965 91.7395 66.9327C91.5784 66.8688 91.4058 66.8386 91.2326 66.8439C90.7326 66.8791 90.2668 67.1103 89.9365 67.4871C89.6061 67.864 89.4379 68.3561 89.4685 68.8563C89.4526 69.0217 89.472 69.1887 89.5254 69.346C89.5788 69.5033 89.6649 69.6476 89.7781 69.7692C89.8913 69.8908 90.029 69.987 90.1822 70.0515C90.3353 70.116 90.5003 70.1473 90.6664 70.1433C91.169 70.1 91.638 69.8732 91.9839 69.5061C92.3298 69.139 92.5284 68.6573 92.5418 68.153" fill="#1D1D1B"/>
<path d="M90.4893 70.7701C90.2511 70.77 90.0154 70.7212 89.7968 70.6265C89.5782 70.5319 89.3813 70.3935 89.2183 70.2198C89.0553 70.0461 88.9296 69.8408 88.849 69.6167C88.7684 69.3925 88.7345 69.1542 88.7496 68.9165C88.7257 68.239 88.9668 67.5789 89.4216 67.0762C89.8764 66.5735 90.5093 66.2678 91.1858 66.224C91.5063 66.2092 91.8242 66.2871 92.1016 66.4484C92.3789 66.6097 92.604 66.8475 92.7497 67.1333L93.4276 64.5737H94.2066L92.5792 70.6711H91.7969L91.9415 70.1362C91.754 70.3336 91.529 70.4915 91.2796 70.6006C91.0302 70.7098 90.7615 70.7679 90.4893 70.7717V70.7701ZM91.1836 66.3654C90.5449 66.4093 89.9484 66.7 89.5203 67.1761C89.0923 67.6522 88.8664 68.2762 88.8905 68.9159C88.8732 69.1355 88.9018 69.3563 88.9745 69.5642C89.0473 69.7721 89.1625 69.9626 89.3129 70.1234C89.4634 70.2843 89.6457 70.4121 89.8482 70.4986C90.0507 70.5851 90.2691 70.6285 90.4893 70.626C90.7885 70.6173 91.082 70.5418 91.3483 70.4051C91.6145 70.2684 91.8469 70.0739 92.0284 69.8359L92.2312 69.6066L91.9833 70.5286H92.4695L94.0191 64.7151H93.5367L92.7778 67.5639L92.6983 67.3674C92.5841 67.0617 92.3759 66.8001 92.1036 66.6201C91.8314 66.4402 91.5091 66.3512 91.1831 66.3659L91.1836 66.3654ZM90.671 70.2151C90.4957 70.2189 90.3216 70.1856 90.16 70.1174C89.9985 70.0492 89.8532 69.9477 89.7336 69.8194C89.6141 69.6912 89.523 69.5391 89.4663 69.3732C89.4096 69.2073 89.3886 69.0313 89.4047 68.8567C89.3742 68.3382 89.5497 67.8287 89.8929 67.439C90.2362 67.0493 90.7195 66.8109 91.2377 66.7758C91.4205 66.7691 91.6028 66.8001 91.7732 66.8669C91.9435 66.9337 92.0983 67.0347 92.2279 67.1639C92.3575 67.293 92.4592 67.4475 92.5265 67.6176C92.5939 67.7877 92.6255 67.9699 92.6194 68.1528C92.6079 68.6768 92.4022 69.1779 92.0422 69.5588C91.6822 69.9398 91.1935 70.1734 90.671 70.2145V70.2151ZM91.2377 66.9173C90.7573 66.9526 90.3103 67.176 89.9937 67.539C89.6772 67.9021 89.5167 68.3754 89.5472 68.8561C89.5323 69.0118 89.5503 69.1689 89.6003 69.3171C89.6502 69.4653 89.7308 69.6013 89.8369 69.7163C89.9429 69.8312 90.072 69.9225 90.2157 69.9842C90.3595 70.0459 90.5146 70.0765 90.671 70.0742C91.1544 70.0296 91.6049 69.8099 91.9376 69.4563C92.2704 69.1027 92.4623 68.6396 92.4775 68.1544C92.4828 67.9904 92.4544 67.827 92.3939 67.6744C92.3335 67.5219 92.2423 67.3834 92.1261 67.2675C92.0099 67.1517 91.8711 67.0609 91.7184 67.0009C91.5656 66.9409 91.4022 66.913 91.2382 66.9188" fill="#1D1D1B"/>
<path d="M97.5559 66.384H98.1819L97.0454 70.5971H96.4258L97.5559 66.384ZM97.9457 64.7656H98.6644L98.4769 65.462H97.7572L97.9457 64.7656Z" fill="#1D1D1B"/>
<path d="M97.1005 70.6678H96.332L97.5009 66.3107H98.2762L97.1005 70.6678ZM96.5179 70.5259H96.9898L98.0903 66.4532H97.6105L96.5179 70.5259ZM98.5304 65.5328H97.6629L97.8922 64.6934H98.7566L98.5304 65.5328ZM97.8493 65.3876H98.4218L98.5712 64.8342H98.0013L97.8493 65.3876Z" fill="#1D1D1B"/>
<path d="M99.4855 66.3837H100.117L99.9346 67.0605C100.107 66.8312 100.329 66.6434 100.583 66.5107C100.838 66.378 101.119 66.3039 101.406 66.2937C101.583 66.2784 101.761 66.3013 101.928 66.3608C102.095 66.4204 102.248 66.5152 102.375 66.6388C102.503 66.7625 102.602 66.9121 102.667 67.0775C102.731 67.243 102.759 67.4203 102.749 67.5976C102.737 67.8191 102.702 68.0386 102.644 68.2527L102.022 70.5967H101.394L102.036 68.2055C102.072 68.0503 102.092 67.8916 102.095 67.7321C102.101 67.6091 102.081 67.4861 102.034 67.372C101.988 67.2578 101.917 67.1551 101.827 67.0713C101.737 66.9875 101.629 66.9246 101.512 66.887C101.394 66.8493 101.27 66.8379 101.148 66.8535C100.783 66.8891 100.438 67.0402 100.165 67.2848C99.891 67.5295 99.7025 67.8549 99.6264 68.214L98.9909 70.5972H98.3633L99.4855 66.3837Z" fill="#1D1D1B"/>
<path d="M102.077 70.6711H101.306L101.969 68.1883C102.005 68.0388 102.024 67.8856 102.025 67.7318C102.032 67.6179 102.014 67.504 101.971 67.3981C101.929 67.2923 101.863 67.1973 101.779 67.12C101.695 67.0427 101.595 66.9851 101.486 66.9513C101.378 66.9175 101.262 66.9084 101.15 66.9247C100.8 66.9598 100.47 67.1057 100.209 67.3411C99.9476 67.5764 99.7682 67.889 99.6968 68.2333L99.0486 70.6695H98.2695L99.4347 66.3103H100.213L100.079 66.8092C100.249 66.6269 100.455 66.4811 100.684 66.3803C100.912 66.2796 101.159 66.2261 101.408 66.223C101.595 66.2071 101.782 66.2314 101.958 66.2943C102.134 66.3571 102.295 66.457 102.429 66.5872C102.563 66.7174 102.667 66.8748 102.735 67.0489C102.803 67.223 102.833 67.4096 102.823 67.5962C102.811 67.8226 102.776 68.0472 102.717 68.2661L102.077 70.6711ZM101.491 70.527H101.968L102.573 68.2333C102.631 68.0259 102.666 67.8128 102.678 67.5978C102.688 67.4303 102.66 67.2628 102.599 67.1066C102.538 66.9505 102.444 66.8093 102.323 66.6926C102.203 66.5759 102.059 66.4863 101.901 66.4301C101.743 66.3738 101.575 66.3521 101.407 66.3665C101.131 66.3773 100.86 66.4495 100.615 66.5777C100.37 66.7059 100.157 66.887 99.9902 67.1079L99.79 67.3303L100.027 66.4528H99.5438L98.458 70.5249H98.9379L99.5596 68.1946C99.6395 67.8206 99.8366 67.4818 100.122 67.2275C100.408 66.9733 100.768 66.8169 101.148 66.7811C101.28 66.766 101.413 66.7796 101.539 66.8209C101.665 66.8622 101.78 66.9304 101.877 67.0206C101.974 67.1108 102.05 67.221 102.1 67.3435C102.15 67.466 102.173 67.5979 102.167 67.7302C102.165 67.8964 102.144 68.0619 102.104 68.2233L101.491 70.527Z" fill="#1D1D1B"/>
<path d="M105.031 71.6347L105.379 71.1612C105.568 71.2945 105.792 71.3683 106.023 71.3731C106.381 71.3731 106.699 71.1888 107.122 70.5919L106.353 66.3848H107.01L107.6 69.8997L109.86 66.3848H110.574L107.687 70.7397C107.091 71.6114 106.586 71.9276 105.957 71.9276C105.626 71.9287 105.303 71.8269 105.032 71.6363" fill="#1D1D1B"/>
<path d="M105.956 71.9999C105.61 72.0007 105.272 71.8933 104.989 71.6927L104.93 71.6525L105.366 71.062L105.423 71.1086C105.599 71.2302 105.808 71.2974 106.022 71.3019C106.378 71.3019 106.675 71.09 107.044 70.5763L106.266 66.313H107.066L107.637 69.7025L109.818 66.313H110.704L107.746 70.7781C107.151 71.6466 106.633 71.9999 105.955 71.9999H105.956ZM105.133 71.6159C105.378 71.775 105.663 71.8592 105.955 71.858C106.58 71.858 107.065 71.5185 107.627 70.6971L110.439 66.455H109.898L107.562 70.0917L106.95 66.455H106.44L107.197 70.6097L107.181 70.6309C106.771 71.2082 106.439 71.4433 106.024 71.4433C105.803 71.4389 105.586 71.3767 105.396 71.2627L105.133 71.6159Z" fill="#1D1D1B"/>
<path d="M110.547 68.8015C110.56 68.1447 110.825 67.5181 111.287 67.0513C111.749 66.5845 112.373 66.3131 113.03 66.2932C113.283 66.2782 113.536 66.3163 113.774 66.4051C114.011 66.4939 114.228 66.6314 114.409 66.8087C114.59 66.9861 114.732 67.1994 114.826 67.435C114.92 67.6706 114.963 67.9232 114.953 68.1765C114.94 68.8353 114.674 69.4639 114.211 69.9327C113.748 70.4015 113.123 70.6749 112.464 70.6964C112.211 70.7101 111.957 70.6706 111.719 70.5806C111.482 70.4905 111.266 70.3518 111.085 70.1733C110.904 69.9949 110.763 69.7806 110.67 69.5442C110.577 69.3079 110.534 69.0547 110.545 68.8009L110.547 68.8015ZM114.305 68.1972C114.32 68.0189 114.298 67.8393 114.238 67.6706C114.178 67.502 114.082 67.3481 113.958 67.2195C113.833 67.091 113.683 66.9907 113.516 66.9256C113.349 66.8604 113.171 66.8319 112.992 66.8419C112.502 66.8817 112.046 67.1038 111.712 67.4641C111.379 67.8244 111.193 68.2968 111.191 68.7877C111.175 68.9662 111.198 69.146 111.259 69.3147C111.319 69.4834 111.416 69.6369 111.541 69.7648C111.667 69.8926 111.819 69.9916 111.986 70.055C112.154 70.1183 112.333 70.1446 112.512 70.1318C113.001 70.0947 113.457 69.8748 113.791 69.5161C114.125 69.1574 114.311 68.6861 114.313 68.1961" fill="#1D1D1B"/>
<path d="M112.463 70.7706C112.199 70.7841 111.936 70.7426 111.69 70.6488C111.444 70.5549 111.22 70.4108 111.032 70.2255C110.845 70.0402 110.698 69.8179 110.601 69.5727C110.504 69.3275 110.46 69.0649 110.47 68.8015C110.484 68.126 110.757 67.4817 111.233 67.0017C111.708 66.5216 112.35 66.2424 113.025 66.2218C113.287 66.2069 113.55 66.2469 113.796 66.3393C114.042 66.4318 114.266 66.5746 114.454 66.7586C114.642 66.9426 114.789 67.1637 114.887 67.4079C114.984 67.6521 115.029 67.9139 115.02 68.1766C115.007 68.8544 114.735 69.5016 114.259 69.9846C113.783 70.4675 113.14 70.7492 112.463 70.7717V70.7706ZM113.025 66.3653C112.388 66.3854 111.782 66.6493 111.334 67.1026C110.885 67.5559 110.628 68.164 110.615 68.8015C110.605 69.0457 110.646 69.2891 110.736 69.5164C110.826 69.7436 110.962 69.9497 111.136 70.1213C111.31 70.2929 111.518 70.4262 111.746 70.5129C111.975 70.5995 112.219 70.6375 112.463 70.6244C113.102 70.6046 113.71 70.3396 114.16 69.884C114.61 69.4284 114.867 68.8172 114.879 68.1771C114.887 67.9333 114.845 67.6903 114.754 67.4638C114.663 67.2373 114.526 67.0322 114.352 66.8616C114.177 66.691 113.969 66.5587 113.741 66.473C113.512 66.3874 113.269 66.3504 113.025 66.3643V66.3653ZM112.502 70.2044C112.315 70.216 112.127 70.1871 111.951 70.1198C111.775 70.0525 111.616 69.9482 111.484 69.8141C111.352 69.68 111.251 69.5192 111.186 69.3425C111.122 69.1658 111.096 68.9773 111.111 68.7898C111.113 68.2798 111.306 67.7891 111.654 67.4156C112.001 67.0421 112.476 66.8133 112.985 66.7747C113.173 66.7636 113.362 66.793 113.538 66.861C113.714 66.9291 113.874 67.0342 114.006 67.1692C114.138 67.3042 114.239 67.466 114.304 67.6436C114.368 67.8212 114.393 68.0106 114.378 68.1988C114.375 68.708 114.181 69.1977 113.833 69.5696C113.486 69.9416 113.01 70.1685 112.502 70.2049V70.2044ZM112.985 66.9172C112.514 66.9546 112.074 67.1682 111.753 67.5154C111.432 67.8625 111.254 68.3178 111.254 68.7904C111.239 68.9593 111.26 69.1295 111.317 69.2893C111.374 69.449 111.465 69.5945 111.584 69.7157C111.702 69.8369 111.846 69.9309 112.004 69.9913C112.163 70.0516 112.333 70.0768 112.502 70.0652C112.973 70.0297 113.413 69.8177 113.734 69.4716C114.055 69.1256 114.234 68.671 114.235 68.1988C114.251 68.0292 114.229 67.8582 114.173 67.6976C114.116 67.537 114.025 67.3907 113.906 67.2688C113.787 67.1469 113.643 67.0522 113.484 66.9915C113.325 66.9308 113.154 66.9054 112.984 66.9172" fill="#1D1D1B"/>
<path d="M115.811 69.3812C115.82 69.161 115.856 68.9426 115.917 68.7308L116.536 66.382H117.161L116.518 68.7711C116.483 68.9254 116.464 69.0827 116.46 69.2408C116.453 69.3635 116.473 69.4862 116.519 69.6003C116.564 69.7145 116.634 69.8173 116.723 69.9017C116.813 69.9862 116.919 70.0502 117.036 70.0893C117.152 70.1285 117.276 70.1418 117.398 70.1284C117.766 70.0933 118.113 69.9403 118.387 69.6922C118.661 69.4441 118.847 69.1142 118.919 68.7515L119.564 66.3794H120.191L119.063 70.5924H118.436L118.621 69.9039C118.45 70.1355 118.228 70.3255 117.973 70.4598C117.718 70.5941 117.436 70.6693 117.148 70.6798C116.971 70.6948 116.793 70.6716 116.627 70.6118C116.46 70.5521 116.308 70.4571 116.181 70.3334C116.054 70.2097 115.956 70.0602 115.892 69.8949C115.828 69.7297 115.8 69.5527 115.811 69.3759" fill="#1D1D1B"/>
<path d="M117.145 70.7563C116.959 70.7716 116.772 70.7467 116.596 70.6833C116.42 70.62 116.26 70.5197 116.127 70.3891C115.993 70.2585 115.889 70.1008 115.822 69.9266C115.755 69.7524 115.726 69.5658 115.737 69.3793C115.744 69.1534 115.78 68.9292 115.843 68.712L116.475 66.3098H117.249L116.581 68.7867C116.55 68.9362 116.532 69.0883 116.528 69.2411C116.522 69.3543 116.54 69.4677 116.581 69.5731C116.623 69.6785 116.688 69.7735 116.77 69.8513C116.853 69.929 116.951 69.9877 117.059 70.0231C117.167 70.0585 117.281 70.0698 117.394 70.0562C117.746 70.0193 118.076 69.871 118.338 69.6328C118.599 69.3946 118.778 69.079 118.847 68.7321L119.507 66.3076H120.277L119.112 70.6637H118.339L118.474 70.1589C118.304 70.3423 118.098 70.4893 117.869 70.5911C117.641 70.693 117.394 70.7475 117.143 70.7515L117.145 70.7563ZM116.585 66.4496L115.98 68.7438C115.921 68.9509 115.886 69.1642 115.878 69.3793C115.866 69.547 115.891 69.7151 115.952 69.872C116.012 70.029 116.105 70.171 116.225 70.2882C116.346 70.4054 116.49 70.495 116.649 70.5509C116.807 70.6068 116.976 70.6276 117.143 70.6117C117.421 70.6004 117.693 70.5272 117.939 70.3974C118.185 70.2677 118.399 70.0847 118.565 69.8618L118.766 69.6341L118.527 70.5238H119.003L120.092 66.4517H119.615L118.986 68.7735C118.907 69.1491 118.711 69.49 118.425 69.7463C118.139 70.0026 117.779 70.161 117.397 70.1986C117.266 70.2122 117.133 70.1972 117.008 70.1546C116.883 70.112 116.769 70.0428 116.673 69.9519C116.578 69.8609 116.503 69.7504 116.454 69.6278C116.405 69.5052 116.384 69.3734 116.391 69.2416C116.395 69.0776 116.414 68.9144 116.448 68.7539L117.069 66.4522L116.585 66.4496Z" fill="#1D1D1B"/>
<path d="M121.585 66.3826H122.212L121.931 67.4842C122.129 67.1261 122.42 66.828 122.773 66.6214C123.126 66.4149 123.528 66.3075 123.937 66.3106L123.756 66.9874H123.713C122.79 66.9874 121.87 67.6564 121.533 68.9354L121.089 70.5956H120.457L121.585 66.3826Z" fill="#1D1D1B"/>
<path d="M121.142 70.6714H120.363L121.528 66.3122H122.302L122.087 67.1564C122.296 66.8618 122.574 66.6239 122.898 66.4641C123.222 66.3043 123.58 66.2277 123.941 66.2413L124.028 66.2471L123.813 67.0584H123.715C122.734 67.0584 121.907 67.7999 121.604 68.9507L121.142 70.6714ZM120.551 70.5274H121.032L121.461 68.9163C121.779 67.7072 122.658 66.9229 123.701 66.917L123.843 66.381C123.462 66.3974 123.091 66.5111 122.766 66.7113C122.441 66.9116 122.173 67.1917 121.986 67.525L121.76 67.8497L122.118 66.4563H121.637L120.551 70.5274Z" fill="#1D1D1B"/>
<path d="M127.759 64.6455H128.382L127.734 67.061C127.906 66.8321 128.127 66.6445 128.381 66.5118C128.634 66.3791 128.915 66.3048 129.201 66.2942C129.378 66.2782 129.557 66.3005 129.725 66.3597C129.893 66.4189 130.046 66.5136 130.174 66.6373C130.302 66.761 130.402 66.9109 130.467 67.0766C130.532 67.2424 130.561 67.4202 130.551 67.598C130.541 67.8197 130.505 68.0395 130.445 68.2532L129.826 70.5966H129.197L129.832 68.2055C129.876 68.0515 129.899 67.8922 129.899 67.732C129.904 67.609 129.883 67.4863 129.836 67.3724C129.789 67.2585 129.718 67.1562 129.628 67.0726C129.537 66.9889 129.43 66.926 129.313 66.8881C129.196 66.8503 129.071 66.8384 128.949 66.8534C128.583 66.8891 128.238 67.0402 127.964 67.2847C127.69 67.5293 127.5 67.8547 127.422 68.214L126.787 70.5972H126.164L127.759 64.6455Z" fill="#1D1D1B"/>
<path d="M129.878 70.6707H129.104L129.762 68.1885C129.805 68.0396 129.827 67.8858 129.829 67.7309C129.834 67.6172 129.815 67.5035 129.771 67.3982C129.728 67.2928 129.662 67.1983 129.578 67.1213C129.494 67.0443 129.394 66.9867 129.286 66.9526C129.177 66.9184 129.062 66.9086 128.949 66.9238C128.599 66.9589 128.269 67.1046 128.007 67.3399C127.745 67.5753 127.565 67.8878 127.493 68.2324L126.844 70.6686H126.07L126.096 70.5786L127.707 64.5713H128.478L127.877 66.8094C128.047 66.628 128.252 66.4828 128.479 66.3822C128.707 66.2817 128.952 66.2279 129.201 66.2242C129.388 66.2077 129.576 66.2315 129.752 66.294C129.929 66.3565 130.091 66.4562 130.225 66.5864C130.36 66.7166 130.466 66.8742 130.534 67.0486C130.603 67.2231 130.634 67.4102 130.624 67.5974C130.612 67.8256 130.575 68.0518 130.514 68.2717L129.878 70.6707ZM129.287 70.5267H129.77L130.375 68.2335C130.434 68.0263 130.469 67.813 130.479 67.598C130.489 67.4295 130.463 67.2607 130.402 67.1034C130.34 66.9461 130.246 66.804 130.124 66.6869C130.002 66.5697 129.857 66.4804 129.697 66.4252C129.538 66.3699 129.368 66.3499 129.2 66.3667C128.924 66.3777 128.654 66.4499 128.41 66.5782C128.166 66.7064 127.953 66.8874 127.787 67.1081L127.587 67.3326L128.29 64.7127H127.813L126.254 70.5245H126.731L127.352 68.1943C127.433 67.8198 127.631 67.4807 127.918 67.2265C128.204 66.9723 128.565 66.8161 128.946 66.7808C129.078 66.7653 129.211 66.7787 129.337 66.8198C129.463 66.861 129.579 66.9291 129.676 67.0193C129.773 67.1096 129.85 67.2199 129.9 67.3425C129.95 67.4652 129.973 67.5974 129.968 67.7298C129.967 67.8972 129.943 68.0637 129.896 68.2245L129.287 70.5267Z" fill="#1D1D1B"/>
<path d="M131.164 69.5178C131.164 68.5729 131.949 67.9946 133.039 67.9946C133.543 68.0036 134.044 68.0802 134.528 68.2223L134.559 68.1206C134.591 67.9933 134.609 67.863 134.612 67.7319C134.612 67.1981 134.237 66.8782 133.478 66.8782C133.07 66.8811 132.666 66.9571 132.284 67.1027L132.175 66.5731C132.62 66.3974 133.095 66.3094 133.574 66.3141C134.636 66.3141 135.233 66.812 135.233 67.6239C135.226 67.8182 135.199 68.0113 135.153 68.2001L134.517 70.5912H133.893L134.071 69.9335C133.879 70.1677 133.638 70.3563 133.365 70.4857C133.092 70.615 132.793 70.6819 132.491 70.6813C132.326 70.6986 132.159 70.6816 132.001 70.6313C131.843 70.581 131.698 70.4984 131.573 70.389C131.449 70.2795 131.349 70.1454 131.279 69.9952C131.209 69.845 131.17 69.6818 131.167 69.5161L131.164 69.5178ZM134.349 68.9447L134.425 68.6455C133.982 68.5212 133.523 68.4574 133.062 68.4559C132.326 68.4559 131.809 68.8615 131.809 69.4473C131.809 69.8937 132.151 70.1851 132.695 70.1851C133.066 70.1783 133.425 70.0547 133.722 69.8321C134.019 69.6094 134.238 69.299 134.348 68.9447" fill="#1D1D1B"/>
<path d="M132.487 70.7573C132.313 70.7756 132.137 70.7574 131.969 70.7039C131.802 70.6504 131.648 70.5628 131.517 70.4466C131.385 70.3303 131.28 70.188 131.206 70.0287C131.133 69.8694 131.093 69.6966 131.09 69.5212C131.09 68.5679 131.874 67.926 133.039 67.926C133.526 67.933 134.01 68.0041 134.479 68.1378L134.491 68.1039C134.52 67.9824 134.536 67.8582 134.54 67.7332C134.54 67.0892 133.964 66.9521 133.48 66.9521C133.08 66.9532 132.684 67.0285 132.311 67.1745L132.234 67.1989L132.096 66.5315L132.153 66.5093C132.606 66.3317 133.089 66.2433 133.576 66.2488C134.658 66.2488 135.305 66.7625 135.305 67.6257C135.3 67.8268 135.273 68.0267 135.223 68.2215L134.571 70.6678H133.802L133.931 70.1863C133.543 70.5568 133.027 70.7611 132.491 70.7557L132.487 70.7573ZM133.042 68.0664C131.962 68.0664 131.234 68.6489 131.234 69.5196C131.239 69.6758 131.277 69.8293 131.344 69.9704C131.411 70.1115 131.507 70.2373 131.625 70.34C131.743 70.4426 131.88 70.5198 132.029 70.5669C132.179 70.614 132.336 70.63 132.491 70.6137C132.783 70.6151 133.072 70.5509 133.335 70.426C133.599 70.3011 133.831 70.1185 134.015 69.8919L134.217 69.661L133.986 70.5258H134.463L135.086 68.1871C135.132 68.0034 135.158 67.8151 135.162 67.6257C135.162 66.8409 134.583 66.3902 133.577 66.3902C133.128 66.3856 132.682 66.4642 132.262 66.6221L132.341 67.0109C132.707 66.8772 133.093 66.8086 133.482 66.808C134.258 66.808 134.686 67.1353 134.686 67.7321C134.683 67.869 134.665 68.0053 134.633 68.1384L134.58 68.3089L134.513 68.2919C134.035 68.15 133.541 68.0742 133.043 68.0664H133.042ZM132.695 70.2562C132.115 70.2562 131.741 69.9416 131.741 69.4507C131.741 68.8242 132.284 68.3915 133.065 68.3915C133.533 68.393 133.999 68.4571 134.45 68.5822L134.517 68.6012L134.42 68.9662C134.306 69.3358 134.077 69.6597 133.768 69.8917C133.458 70.1237 133.083 70.2519 132.696 70.2578L132.695 70.2562ZM133.067 68.5335C132.371 68.5335 131.884 68.9116 131.884 69.4523C131.884 69.8628 132.197 70.1154 132.698 70.1154C133.054 70.1099 133.399 69.9921 133.684 69.7789C133.968 69.5656 134.178 69.2678 134.284 68.928L134.343 68.7003C133.926 68.59 133.497 68.5338 133.066 68.5329" fill="#1D1D1B"/>
<path d="M136.952 66.3835H137.58L137.402 67.0603C137.573 66.8315 137.794 66.644 138.048 66.5114C138.301 66.3787 138.581 66.3042 138.867 66.2934C139.044 66.2777 139.223 66.3003 139.39 66.3597C139.558 66.4191 139.711 66.5138 139.838 66.6375C139.966 66.7612 140.066 66.911 140.13 67.0766C140.195 67.2422 140.223 67.4198 140.213 67.5973C140.205 67.8192 140.17 68.0393 140.107 68.2524L139.489 70.5965H138.863L139.499 68.2053C139.54 68.0508 139.561 67.8917 139.561 67.7319C139.568 67.6091 139.547 67.4864 139.501 67.3725C139.455 67.2585 139.385 67.156 139.295 67.0722C139.205 66.9885 139.098 66.9255 138.981 66.8876C138.864 66.8498 138.74 66.838 138.618 66.8532C138.252 66.8904 137.908 67.0419 137.633 67.2862C137.359 67.5304 137.168 67.855 137.089 68.2138L136.453 70.597H135.828L136.952 66.3835Z" fill="#1D1D1B"/>
<path d="M139.541 70.6711H138.768L139.43 68.1883C139.47 68.0393 139.49 67.886 139.492 67.7318C139.498 67.6185 139.478 67.5052 139.436 67.4C139.393 67.2949 139.328 67.2004 139.244 67.1234C139.161 67.0464 139.062 66.9886 138.953 66.9543C138.845 66.9199 138.731 66.9098 138.618 66.9247C138.268 66.9613 137.938 67.1077 137.676 67.3429C137.413 67.5781 137.232 67.8901 137.158 68.2344L136.51 70.6706H135.738L136.898 66.3114H137.672L137.541 66.8102C137.711 66.6291 137.916 66.484 138.143 66.3833C138.371 66.2826 138.616 66.2285 138.865 66.224C139.051 66.2081 139.239 66.2322 139.415 66.295C139.591 66.3577 139.752 66.4576 139.886 66.5878C140.02 66.718 140.125 66.8754 140.193 67.0496C140.262 67.2237 140.292 67.4105 140.282 67.5973C140.272 67.8255 140.235 68.0518 140.173 68.2714L139.541 70.6711ZM138.955 70.527H139.431L140.037 68.2333C140.098 68.0265 140.133 67.8131 140.143 67.5978C140.153 67.4296 140.127 67.2611 140.066 67.1041C140.005 66.947 139.911 66.805 139.789 66.688C139.668 66.5709 139.523 66.4815 139.364 66.426C139.205 66.3705 139.035 66.3502 138.868 66.3665C138.592 66.3776 138.322 66.4498 138.078 66.5781C137.834 66.7063 137.621 66.8873 137.455 67.1079L137.257 67.3303L137.49 66.4528H137.013L135.927 70.5249H136.404L137.022 68.1946C137.106 67.8208 137.306 67.483 137.593 67.2292C137.88 66.9755 138.24 66.8187 138.621 66.7812C138.753 66.766 138.886 66.7796 139.012 66.8209C139.137 66.8623 139.253 66.9304 139.349 67.0207C139.446 67.1109 139.522 67.2211 139.572 67.3436C139.622 67.4661 139.645 67.598 139.639 67.7302C139.637 67.8975 139.614 68.064 139.57 68.2253L138.955 70.527Z" fill="#1D1D1B"/>
<path d="M141.08 68.913C141.052 68.254 141.284 67.6105 141.726 67.1207C142.168 66.6308 142.784 66.3337 143.442 66.2931C143.783 66.2776 144.12 66.3706 144.404 66.5588C144.689 66.7469 144.906 67.0205 145.026 67.3401L145.748 64.6455H146.368L144.777 70.5966H144.156L144.34 69.8812C144.152 70.1256 143.912 70.3254 143.637 70.4665C143.362 70.6076 143.06 70.6864 142.752 70.6973C142.522 70.6991 142.294 70.6532 142.083 70.5627C141.872 70.4721 141.681 70.3388 141.524 70.1712C141.367 70.0035 141.246 69.8051 141.17 69.5885C141.093 69.3719 141.062 69.1417 141.079 68.9125L141.08 68.913ZM144.806 68.152C144.812 67.9791 144.782 67.8069 144.719 67.646C144.655 67.4851 144.56 67.3388 144.438 67.2162C144.316 67.0936 144.17 66.9974 144.009 66.9334C143.849 66.8693 143.676 66.8389 143.504 66.8439C143.004 66.8791 142.538 67.1104 142.208 67.4873C141.878 67.8643 141.71 68.3563 141.742 68.8563C141.724 69.0211 141.742 69.1876 141.794 69.3448C141.846 69.5021 141.931 69.6464 142.044 69.7682C142.156 69.89 142.293 69.9864 142.445 70.0511C142.598 70.1158 142.762 70.1472 142.928 70.1433C143.431 70.1011 143.901 69.8746 144.248 69.5074C144.594 69.1401 144.793 68.6578 144.806 68.153" fill="#1D1D1B"/>
<path d="M142.751 70.7701C142.512 70.7705 142.276 70.7221 142.057 70.6277C141.837 70.5333 141.64 70.395 141.476 70.2213C141.312 70.0477 141.186 69.8423 141.105 69.6179C141.023 69.3935 140.989 69.1547 141.003 68.9165C140.98 68.2391 141.221 67.5793 141.676 67.0767C142.131 66.5742 142.763 66.2683 143.439 66.224C143.76 66.2106 144.078 66.2893 144.356 66.4507C144.633 66.6121 144.858 66.8495 145.005 67.1349L145.688 64.5737H146.457L144.826 70.6711H144.058L144.202 70.1341C144.014 70.3317 143.789 70.49 143.54 70.5997C143.29 70.7094 143.022 70.7682 142.749 70.7727L142.751 70.7701ZM143.438 66.3664C142.799 66.41 142.202 66.7007 141.774 67.1769C141.346 67.653 141.12 68.2772 141.145 68.917C141.127 69.1369 141.156 69.358 141.229 69.5661C141.302 69.7743 141.418 69.9649 141.568 70.1258C141.719 70.2868 141.902 70.4145 142.105 70.5008C142.308 70.5871 142.527 70.6302 142.747 70.6271C143.046 70.6175 143.338 70.5415 143.604 70.4049C143.87 70.2682 144.102 70.0742 144.283 69.8369L144.479 69.6092L144.242 70.5291H144.714L146.268 64.7156H145.795L145.034 67.5612L144.955 67.3679C144.841 67.0612 144.633 66.7987 144.36 66.6186C144.087 66.4384 143.764 66.3501 143.437 66.3664H143.438ZM142.924 70.2156C142.749 70.2187 142.576 70.1849 142.415 70.1163C142.254 70.0478 142.11 69.946 141.991 69.8177C141.873 69.6895 141.782 69.5376 141.727 69.3721C141.671 69.2066 141.651 69.0311 141.667 68.8572C141.636 68.3388 141.812 67.8292 142.155 67.4395C142.498 67.0497 142.981 66.8114 143.499 66.7764C143.682 66.7701 143.863 66.8015 144.033 66.8686C144.203 66.9356 144.357 67.0369 144.485 67.1661C144.614 67.2953 144.715 67.4496 144.781 67.6195C144.848 67.7893 144.879 67.971 144.872 68.1533C144.861 68.6774 144.655 69.1785 144.295 69.5595C143.935 69.9404 143.446 70.1741 142.924 70.2151V70.2156ZM143.499 66.9178C143.019 66.9532 142.572 67.1767 142.255 67.5397C141.939 67.9027 141.778 68.3759 141.808 68.8567C141.791 69.0122 141.806 69.1697 141.855 69.3186C141.903 69.4674 141.983 69.6042 142.089 69.7197C142.194 69.8351 142.323 69.9265 142.468 69.9878C142.612 70.049 142.767 70.0787 142.924 70.0747C143.407 70.0298 143.858 69.8101 144.191 69.4566C144.524 69.1031 144.716 68.6402 144.732 68.1549C144.738 67.9913 144.71 67.8283 144.65 67.676C144.59 67.5236 144.5 67.3853 144.384 67.2694C144.268 67.1535 144.13 67.0627 143.978 67.0025C143.826 66.9422 143.663 66.9139 143.499 66.9193" fill="#1D1D1B"/>
</svg>
