<svg width="140" height="32" viewBox="0 0 140 32" fill="none" xmlns="http://www.w3.org/2000/svg">
<path d="M117.346 13.1806C116.496 13.1787 115.652 13.3273 114.859 13.6188C115.93 16.7514 118.038 19.4771 120.874 21.3946C121.462 21.7861 122.085 22.1303 122.735 22.4236C123.491 21.4494 123.899 20.2735 123.899 19.0662C123.899 15.8168 120.965 13.1797 117.348 13.1797" fill="#E42313"/>
<path d="M132.369 16.397C134.772 14.6602 140.843 10.9033 139.903 9.38107C139.143 8.15027 135.825 9.6359 132.077 11.5573C129.132 13.0705 129.767 11.2435 131.639 8.57336C133.29 6.22313 135.769 3.05156 134.385 2.1933C132.777 1.19461 127.845 6.72338 126.692 7.81527C125.54 8.90716 124.487 9.49427 125.065 6.45344C125.841 2.41483 125.993 0.30306 125.031 0.0482451C123.683 -0.307649 122.841 1.27814 120.825 5.71592C119.381 8.90141 118.118 9.46521 117.964 6.60808C117.762 1.47395 116.377 2.65086 115.847 3.44043C114.385 5.60847 113.89 8.23926 114.218 10.874C115.406 10.4488 116.666 10.232 117.937 10.2342C123.557 10.2342 128.113 14.3784 128.113 19.4835C128.115 20.9664 127.724 22.4262 126.975 23.73C130.183 24.2838 133.564 24.0178 136.112 22.8236C136.536 22.6245 137.565 22.0283 136.924 21.2061C135.644 19.5622 133.337 20.4253 130.869 19.7498C128.701 19.1573 130.632 17.6492 132.368 16.3958" fill="#E42313"/>
<path d="M122.73 22.4854C122.108 23.278 121.296 23.9208 120.36 24.3615C119.424 24.8022 118.391 25.0284 117.346 25.0218C113.727 25.0218 110.793 22.3822 110.793 19.1277C110.809 17.9388 111.206 16.7822 111.931 15.8098C112.657 14.8373 113.677 14.0943 114.858 13.6782C114.551 12.7819 114.337 11.8596 114.219 10.9243C110.433 12.2734 107.754 15.6166 107.754 19.5338C107.754 24.6429 112.312 28.7859 117.938 28.7859C119.783 28.7982 121.597 28.3394 123.188 27.4582C124.779 26.577 126.088 25.3061 126.976 23.7804C125.506 23.53 124.077 23.0944 122.73 22.4854" fill="#706F6F"/>
<path d="M8.10258 14.9752C8.09581 14.7995 8.01655 14.6333 7.88169 14.5119C7.74684 14.3906 7.56707 14.3238 7.38072 14.3257H0.841024C0.655151 14.3247 0.476145 14.3919 0.34181 14.5131C0.207476 14.6343 0.128333 14.8 0.121094 14.9752C0.127131 15.15 0.206223 15.3154 0.341103 15.4354C0.475983 15.5553 0.655698 15.6201 0.841024 15.6155H3.3502V22.6036C3.35595 22.7903 3.43861 22.9675 3.58064 23.0976C3.72266 23.2278 3.91287 23.3006 4.11087 23.3006C4.30888 23.3006 4.49908 23.2278 4.64111 23.0976C4.78314 22.9675 4.8658 22.7903 4.87155 22.6036V15.6155H7.38104C7.56656 15.6201 7.74648 15.5554 7.88167 15.4355C8.01686 15.3155 8.09637 15.1501 8.1029 14.9752" fill="#1D1D1B"/>
<path d="M10.2851 16.396C9.80837 16.3982 9.33689 16.4902 8.89834 16.6665C8.4598 16.8429 8.06302 17.1002 7.7313 17.4232C7.39958 17.7462 7.1396 18.1284 6.96661 18.5475C6.79363 18.9666 6.71113 19.414 6.72395 19.8635V19.8905C6.71416 20.3498 6.8032 20.8062 6.98569 21.2322C7.16818 21.6581 7.44034 22.0448 7.7857 22.3687C8.13106 22.6926 8.54247 22.9472 8.99506 23.1169C9.44764 23.2866 9.93201 23.368 10.4189 23.3562C10.9295 23.3718 11.4383 23.2912 11.9155 23.1191C12.3927 22.9471 12.8288 22.687 13.1982 22.3542C13.269 22.299 13.3262 22.23 13.366 22.152C13.4057 22.0739 13.4271 21.9886 13.4286 21.902C13.4222 21.7373 13.3469 21.5816 13.2191 21.469C13.0913 21.3565 12.9215 21.2963 12.7468 21.3016C12.585 21.3026 12.4287 21.3575 12.3057 21.4566C11.8035 21.903 11.1368 22.1474 10.4468 22.1378C9.92066 22.1568 9.40562 21.9917 9.00068 21.6742C8.59574 21.3568 8.32946 20.9094 8.25301 20.418H13.0282C13.2124 20.4217 13.3906 20.3564 13.5238 20.2363C13.657 20.1163 13.7343 19.9513 13.7388 19.7776C13.7388 18.0944 12.5517 16.396 10.2851 16.396ZM10.2588 17.5884C11.4924 17.5884 12.0724 18.4475 12.2245 19.3191H8.25332C8.46122 18.2902 9.25751 17.5884 10.2588 17.5884Z" fill="#1D1D1B"/>
<path d="M15.4108 13.9057C15.3155 13.9042 15.2209 13.9204 15.1323 13.9535C15.0437 13.9866 14.9629 14.0359 14.8946 14.0986C14.8263 14.1613 14.7718 14.2361 14.7343 14.3187C14.6967 14.4013 14.6768 14.4901 14.6758 14.5799V22.6211C14.6767 22.7123 14.6969 22.8023 14.7352 22.886C14.7735 22.9697 14.8291 23.0453 14.8989 23.1084C14.9686 23.1715 15.051 23.2208 15.1412 23.2534C15.2315 23.2861 15.3277 23.3014 15.4243 23.2984C15.5202 23.3012 15.6157 23.2858 15.7052 23.2529C15.7946 23.2201 15.8761 23.1706 15.9448 23.1074C16.0135 23.0441 16.0679 22.9685 16.1049 22.8849C16.1419 22.8014 16.1606 22.7117 16.1599 22.6211V14.5799C16.155 14.3969 16.0735 14.2232 15.933 14.0968C15.7926 13.9704 15.6048 13.9017 15.4108 13.9057Z" fill="#1D1D1B"/>
<path d="M21.3067 19.5276L23.4332 17.6389C23.5151 17.5782 23.5818 17.5012 23.6287 17.4135C23.6756 17.3257 23.7015 17.2293 23.7046 17.1311C23.7044 17.0457 23.6862 16.9611 23.651 16.8824C23.6157 16.8037 23.5641 16.7324 23.4993 16.6728C23.4344 16.6131 23.3576 16.5663 23.2733 16.5351C23.189 16.5038 23.099 16.4887 23.0084 16.4907C22.9003 16.4908 22.7935 16.5128 22.6952 16.5553C22.5969 16.5978 22.5095 16.6598 22.4389 16.7371L19.0623 19.8406V14.5799C19.0543 14.3993 18.9726 14.2286 18.8343 14.1035C18.696 13.9783 18.5118 13.9084 18.3202 13.9084C18.1286 13.9084 17.9443 13.9783 17.806 14.1035C17.6678 14.2286 17.5861 14.3993 17.5781 14.5799V22.6211C17.5796 22.7124 17.6004 22.8025 17.6392 22.8861C17.678 22.9697 17.7341 23.0451 17.8042 23.108C17.8743 23.1709 17.9571 23.22 18.0475 23.2524C18.138 23.2848 18.2344 23.2998 18.3311 23.2966C18.4266 23.2994 18.5218 23.2839 18.6108 23.2511C18.6999 23.2184 18.781 23.1689 18.8493 23.1058C18.9176 23.0428 18.9716 22.9673 19.0082 22.884C19.0448 22.8007 19.0632 22.7113 19.0623 22.6211V21.5014L20.2567 20.4343L22.5105 23C22.58 23.0945 22.6734 23.1711 22.7822 23.223C22.8909 23.2748 23.0117 23.3004 23.1335 23.2972C23.2696 23.3042 23.4048 23.2727 23.5217 23.2066C23.6386 23.1406 23.7319 23.043 23.7896 22.9266C23.8473 22.8101 23.8667 22.68 23.8454 22.5531C23.8241 22.4261 23.763 22.308 23.6699 22.2141L21.3067 19.5276Z" fill="#1D1D1B"/>
<path d="M27.7359 16.3963C25.5706 16.3963 23.8789 17.924 23.8789 19.8766V19.9026C23.8789 21.8394 25.5597 23.3562 27.707 23.3562C29.8783 23.3562 31.5777 21.8316 31.5777 19.876V19.853C31.5777 17.9119 29.8892 16.396 27.7362 16.396L27.7359 16.3963ZM25.3868 19.853C25.3773 19.5612 25.4306 19.2706 25.5432 18.9987C25.6559 18.7269 25.8258 18.4793 26.0425 18.271C26.2593 18.0627 26.5185 17.8978 26.8045 17.7864C27.0906 17.6751 27.3976 17.6194 27.707 17.6229C28.0197 17.6218 28.3296 17.6795 28.6184 17.7927C28.9072 17.9058 29.1692 18.0722 29.3891 18.2819C29.609 18.4917 29.7824 18.7407 29.8991 19.0144C30.0158 19.2881 30.0736 19.581 30.0689 19.876V19.902C30.0762 20.1933 30.0209 20.4831 29.9064 20.7538C29.7919 21.0244 29.6204 21.2705 29.4025 21.477C29.1845 21.6836 28.9245 21.8464 28.6381 21.9557C28.3517 22.065 28.0448 22.1185 27.7359 22.113C27.425 22.1146 27.1169 22.0576 26.8297 21.9455C26.5425 21.8333 26.2818 21.6683 26.063 21.46C25.8443 21.2516 25.6717 21.0042 25.5556 20.7323C25.4394 20.4603 25.3819 20.1692 25.3865 19.876L25.3868 19.853Z" fill="#1D1D1B"/>
<path d="M40.6138 16.3972C40.1481 16.3831 39.6856 16.4733 39.2639 16.6602C38.8422 16.8471 38.4734 17.1256 38.1877 17.4728C37.9401 17.1272 37.603 16.8471 37.2084 16.6588C36.8138 16.4706 36.3748 16.3806 35.933 16.3972C35.5554 16.3866 35.1798 16.4521 34.8312 16.5894C34.4827 16.7268 34.1692 16.9327 33.9118 17.1934V17.1444C33.9038 16.9631 33.8218 16.7917 33.683 16.6661C33.5442 16.5404 33.3592 16.4703 33.1668 16.4703C32.9744 16.4703 32.7895 16.5404 32.6507 16.6661C32.5118 16.7917 32.4299 16.9631 32.4219 17.1444V22.5996C32.4234 22.6908 32.4442 22.7808 32.483 22.8643C32.5217 22.9479 32.5776 23.0233 32.6475 23.0863C32.7174 23.1493 32.7999 23.1985 32.8901 23.2312C32.9804 23.2639 33.0766 23.2793 33.1733 23.2766C33.2693 23.2794 33.3649 23.264 33.4544 23.2312C33.544 23.1984 33.6256 23.1489 33.6944 23.0858C33.7633 23.0226 33.818 22.947 33.8552 22.8635C33.8924 22.78 33.9115 22.6902 33.9112 22.5996V19.4311C33.9112 18.4003 34.6282 17.6495 35.6199 17.6495C36.6163 17.6495 37.1887 18.2587 37.1887 19.3188V22.5996C37.1887 22.69 37.2079 22.7794 37.2451 22.8626C37.2823 22.9459 37.3368 23.0212 37.4053 23.0843C37.4739 23.1474 37.5551 23.1969 37.6442 23.2299C37.7334 23.263 37.8286 23.2789 37.9243 23.2766C38.0207 23.2791 38.1167 23.2635 38.2066 23.2307C38.2965 23.1979 38.3786 23.1486 38.4481 23.0856C38.5176 23.0226 38.5732 22.9472 38.6116 22.8638C38.6499 22.7804 38.6703 22.6906 38.6716 22.5996V19.3918C38.6716 18.3531 39.3504 17.6504 40.3559 17.6504C41.3758 17.6504 41.9382 18.252 41.9382 19.3451V22.5996C41.9451 22.7809 42.0263 22.9525 42.1647 23.0784C42.3031 23.2044 42.4878 23.2747 42.6801 23.2747C42.8724 23.2747 43.0571 23.2044 43.1955 23.0784C43.3339 22.9525 43.4151 22.7809 43.422 22.5996V19.1224C43.422 17.4407 42.3482 16.3972 40.6132 16.3972" fill="#1D1D1B"/>
<path d="M47.474 14.4235C47.294 14.4239 47.1213 14.4905 46.9927 14.6092C46.864 14.7279 46.7896 14.8893 46.7852 15.059V22.7761C46.7929 22.9452 46.8695 23.105 46.9991 23.2221C47.1287 23.3392 47.3012 23.4046 47.4807 23.4046C47.6602 23.4046 47.8327 23.3392 47.9623 23.2221C48.0919 23.105 48.1685 22.9452 48.1763 22.7761V15.059C48.1721 14.887 48.0959 14.7235 47.9643 14.6044C47.8326 14.4853 47.6563 14.4202 47.474 14.4235Z" fill="#1D1D1B"/>
<path d="M53.5223 16.5753C53.0974 16.5615 52.6746 16.6382 52.2854 16.7996C51.8962 16.961 51.5505 17.203 51.274 17.5077V17.2704C51.2673 17.104 51.1926 16.9465 51.0654 16.831C50.9383 16.7155 50.7686 16.6509 50.5921 16.6509C50.4155 16.6509 50.2459 16.7155 50.1187 16.831C49.9915 16.9465 49.9168 17.104 49.9102 17.2704V22.7717C49.9114 22.8555 49.9304 22.9382 49.966 23.015C50.0016 23.0918 50.0532 23.161 50.1177 23.2187C50.1821 23.2764 50.2582 23.3213 50.3413 23.3508C50.4245 23.3803 50.5131 23.3938 50.6019 23.3905C50.6896 23.3932 50.777 23.3791 50.8588 23.3492C50.9407 23.3192 51.0153 23.274 51.0782 23.2162C51.1411 23.1585 51.191 23.0893 51.2249 23.0129C51.2588 22.9365 51.2761 22.8545 51.2756 22.7717V19.5611C51.2634 19.3163 51.3055 19.0717 51.3992 18.8431C51.4929 18.6145 51.6361 18.4068 51.8196 18.2334C52.0032 18.06 52.2231 17.9246 52.4653 17.8358C52.7075 17.7471 52.9666 17.707 53.2262 17.718C54.3642 17.718 55.0148 18.3611 55.0148 19.4863V22.772C55.0161 22.8555 55.0351 22.938 55.0706 23.0146C55.1061 23.0911 55.1575 23.1603 55.2216 23.2179C55.2858 23.2755 55.3615 23.3205 55.4443 23.3502C55.5271 23.3799 55.6154 23.3937 55.7039 23.3909C55.7916 23.393 55.8788 23.3785 55.9605 23.3484C56.0422 23.3183 56.1167 23.273 56.1796 23.2154C56.2425 23.1577 56.2926 23.0888 56.3269 23.0127C56.3611 22.9365 56.3789 22.8547 56.3793 22.772V19.2566C56.3793 17.6282 55.2564 16.5756 53.5239 16.5756" fill="#1D1D1B"/>
<path d="M64.0417 14.0578C63.9541 14.0551 63.8668 14.0691 63.7851 14.099C63.7034 14.1289 63.6288 14.1739 63.5659 14.2315C63.5031 14.2892 63.4531 14.3581 63.4191 14.4343C63.3851 14.5106 63.3677 14.5924 63.368 14.6751V17.6681C63.0548 17.3249 62.6654 17.0508 62.2274 16.8654C61.7894 16.68 61.3135 16.5878 60.8335 16.5953C60.36 16.5934 59.8911 16.6819 59.4549 16.8556C59.0187 17.0292 58.6244 17.2844 58.2956 17.6058C57.9669 17.9271 57.7105 18.3079 57.542 18.7253C57.3735 19.1426 57.2964 19.5879 57.3153 20.0341V20.058C57.2972 20.5034 57.375 20.9476 57.544 21.3638C57.7129 21.7801 57.9695 22.1597 58.2983 22.4798C58.6271 22.7999 59.0213 23.0538 59.457 23.2262C59.8927 23.3986 60.361 23.4859 60.8335 23.4829C61.3189 23.4896 61.7994 23.3917 62.2386 23.1967C62.6778 23.0017 63.0641 22.7148 63.368 22.3577V22.7914C63.3691 22.875 63.388 22.9575 63.4235 23.0342C63.4589 23.1108 63.5103 23.18 63.5746 23.2376C63.6388 23.2952 63.7146 23.3401 63.7975 23.3697C63.8805 23.3992 63.9689 23.4128 64.0574 23.4096C64.145 23.4118 64.2321 23.3974 64.3137 23.3673C64.3952 23.3372 64.4696 23.292 64.5324 23.2344C64.5951 23.1768 64.6451 23.1079 64.6792 23.0318C64.7134 22.9557 64.731 22.874 64.7312 22.7914V14.6751C64.7296 14.5916 64.7104 14.5093 64.6748 14.4329C64.6391 14.3565 64.5877 14.2875 64.5235 14.2301C64.4593 14.1726 64.3836 14.1277 64.3008 14.0982C64.218 14.0686 64.1298 14.0548 64.0414 14.0578H64.0417ZM63.4097 20.0226V20.0486C63.4158 20.6528 63.168 21.2348 62.7203 21.667C62.2727 22.0992 61.6617 22.3465 61.0212 22.3547C60.7063 22.3531 60.395 22.2915 60.1061 22.1735C59.8171 22.0556 59.5564 21.8837 59.3396 21.6683C59.1228 21.4529 58.9544 21.1984 58.8446 20.9201C58.7347 20.6417 58.6856 20.3453 58.7003 20.0486V20.0235C58.7003 18.6692 59.6583 17.7253 61.0212 17.7253C61.3389 17.7251 61.6536 17.7847 61.9467 17.9006C62.2397 18.0166 62.5053 18.1866 62.7277 18.4006C62.9502 18.6147 63.1251 18.8685 63.2422 19.1472C63.3593 19.4259 63.4163 19.7238 63.4097 20.0235" fill="#1D1D1B"/>
<path d="M69.5777 16.5742C67.4282 16.5742 65.7461 18.0892 65.7461 20.0272V20.0496C65.7461 21.9677 67.4169 23.4745 69.5511 23.4745C71.7028 23.4745 73.3926 21.9589 73.3926 20.0272V20.0015C73.3926 18.0783 71.7157 16.5742 69.578 16.5742H69.5777ZM67.134 20.0015C67.1246 19.6983 67.1805 19.3965 67.2982 19.1142C67.416 18.8319 67.5932 18.5751 67.8191 18.3593C68.045 18.1434 68.3149 17.973 68.6126 17.8582C68.9103 17.7435 69.2296 17.6869 69.5511 17.6918C69.8756 17.6899 70.1973 17.7492 70.4972 17.8661C70.7971 17.9831 71.0693 18.1554 71.2976 18.373C71.526 18.5906 71.7059 18.849 71.8269 19.133C71.9479 19.4171 72.0075 19.7211 72.0022 20.0272V20.0496C72.0099 20.3524 71.9525 20.6534 71.8335 20.9347C71.7145 21.2159 71.5364 21.4715 71.3099 21.6861C71.0834 21.9007 70.8132 22.0697 70.5155 22.1832C70.2179 22.2966 69.899 22.352 69.578 22.346C69.2552 22.3482 68.9352 22.2896 68.6367 22.1737C68.3382 22.0578 68.0672 21.8868 67.8396 21.6709C67.612 21.455 67.4324 21.1984 67.3112 20.9161C67.19 20.6339 67.1298 20.3317 67.134 20.0272V20.0015Z" fill="#1D1D1B"/>
<path d="M78.007 16.5752C77.582 16.5618 77.1592 16.6387 76.7699 16.8001C76.3806 16.9614 76.0347 17.2032 75.7577 17.5076V17.2704C75.7511 17.104 75.6764 16.9466 75.5493 16.8311C75.4222 16.7157 75.2526 16.6511 75.0761 16.6511C74.8997 16.6511 74.7301 16.7157 74.603 16.8311C74.4759 16.9466 74.4012 17.104 74.3945 17.2704V22.7716C74.3957 22.8552 74.4145 22.9377 74.4499 23.0143C74.4854 23.091 74.5367 23.1601 74.6008 23.2178C74.665 23.2754 74.7407 23.3204 74.8236 23.3501C74.9065 23.3797 74.9948 23.3934 75.0833 23.3905C75.1712 23.3936 75.2589 23.3799 75.3409 23.3502C75.423 23.3204 75.4979 23.2752 75.5609 23.2173C75.6239 23.1594 75.6738 23.0901 75.7075 23.0135C75.7412 22.9368 75.7581 22.8546 75.7571 22.7716V19.561C75.7451 19.3159 75.7876 19.0711 75.8816 18.8424C75.9756 18.6136 76.1192 18.4059 76.3032 18.2324C76.4871 18.059 76.7074 17.9236 76.95 17.8351C77.1925 17.7465 77.452 17.7066 77.7119 17.718C78.8466 17.718 79.4989 18.3611 79.4989 19.4862V22.7719C79.4998 22.8554 79.5185 22.9378 79.5537 23.0144C79.589 23.091 79.6401 23.1601 79.7041 23.2178C79.7681 23.2755 79.8437 23.3205 79.9264 23.3502C80.0091 23.3799 80.0973 23.3937 80.1858 23.3908C80.2736 23.3933 80.361 23.3791 80.4429 23.3491C80.5248 23.3191 80.5995 23.2739 80.6625 23.2162C80.7255 23.1585 80.7756 23.0894 80.8099 23.0131C80.8441 22.9368 80.8617 22.8548 80.8617 22.7719V19.2565C80.8617 17.6281 79.7388 16.5755 78.0064 16.5755" fill="#1D1D1B"/>
<path d="M85.3038 16.5742C84.8312 16.5768 84.3639 16.6684 83.9293 16.8436C83.4947 17.0187 83.1016 17.2739 82.7729 17.5943C82.4442 17.9146 82.1867 18.2936 82.0152 18.709C81.8438 19.1245 81.7621 19.568 81.7747 20.0136V20.0372C81.7649 20.493 81.8531 20.946 82.0342 21.3687C82.2153 21.7914 82.4854 22.175 82.8281 22.4964C83.1709 22.8178 83.5792 23.0703 84.0284 23.2386C84.4776 23.4068 84.9583 23.4874 85.4414 23.4754C85.9489 23.4915 86.4547 23.4117 86.929 23.2408C87.4034 23.07 87.8367 22.8114 88.2037 22.4804C88.2682 22.4305 88.3204 22.368 88.3569 22.2973C88.3933 22.2266 88.4131 22.1492 88.4148 22.0706C88.4119 21.9963 88.3935 21.9232 88.3607 21.8556C88.3278 21.788 88.2811 21.7271 88.2233 21.6765C88.1655 21.6259 88.0977 21.5866 88.0238 21.5607C87.9498 21.5349 87.8712 21.523 87.7924 21.5259C87.6464 21.5282 87.5058 21.5785 87.3949 21.6681C86.872 22.1278 86.1811 22.3792 85.4664 22.3699C84.9071 22.3844 84.3622 22.2021 83.9375 21.8585C83.5128 21.5149 83.2389 21.0345 83.169 20.5108H88.0799C88.2477 20.5134 88.4097 20.4534 88.5309 20.3439C88.652 20.2343 88.7224 20.0841 88.7266 19.9259C88.7266 18.2629 87.5521 16.5751 85.3044 16.5751L85.3038 16.5742ZM83.169 19.5306C83.3586 18.4157 84.2033 17.6579 85.2775 17.6579C86.6025 17.6579 87.2066 18.5943 87.3468 19.5306H83.169Z" fill="#1D1D1B"/>
<path d="M92.4709 19.4333L92.4433 19.4282C91.5829 19.1916 90.775 18.9685 90.775 18.4789V18.4565C90.775 17.994 91.2563 17.6787 91.9743 17.6787C92.5932 17.6965 93.1978 17.8585 93.7343 18.1502C93.8313 18.194 93.9376 18.2168 94.0452 18.2168C94.2035 18.2222 94.3577 18.1682 94.4738 18.0665C94.5899 17.9648 94.6585 17.8238 94.6644 17.6745C94.6622 17.5683 94.6299 17.4647 94.5711 17.3743C94.5122 17.2838 94.4288 17.2099 94.3294 17.16C93.6105 16.8069 92.8143 16.6165 92.0038 16.6038C90.4991 16.6038 89.4484 17.4054 89.4484 18.5557V18.5818C89.4484 19.881 90.86 20.2414 91.8892 20.5044C92.8225 20.7398 93.5303 20.961 93.5303 21.4828V21.5076C93.5303 22.026 93.0121 22.3701 92.2322 22.3701C91.4668 22.3564 90.7225 22.1312 90.0913 21.7225C89.9892 21.6547 89.8665 21.6197 89.7417 21.6229C89.6139 21.616 89.4873 21.6489 89.3813 21.7165C89.2753 21.7842 89.1959 21.8829 89.1553 21.9973C89.1146 22.1117 89.1149 22.2356 89.1562 22.3498C89.1976 22.4641 89.2776 22.5623 89.3839 22.6294C90.211 23.1532 91.1819 23.4384 92.178 23.4505C93.7712 23.4505 94.8408 22.6315 94.8408 21.4092V21.3871C94.8408 20.0761 93.4154 19.6924 92.4735 19.4346" fill="#1D1D1B"/>
<path d="M96.6854 16.6508C96.5093 16.6487 96.3394 16.7127 96.2131 16.8286C96.0868 16.9445 96.0144 17.1028 96.0117 17.269V22.7702C96.0128 22.8537 96.0315 22.9362 96.0668 23.0127C96.1021 23.0893 96.1534 23.1584 96.2174 23.216C96.2815 23.2736 96.3571 23.3185 96.4399 23.3482C96.5226 23.3778 96.6108 23.3915 96.6992 23.3885C96.7871 23.3915 96.8748 23.3777 96.9569 23.3479C97.039 23.3182 97.1139 23.2731 97.177 23.2153C97.2402 23.1576 97.2904 23.0884 97.3245 23.0119C97.3586 22.9354 97.3759 22.8532 97.3755 22.7702V17.269C97.3741 17.1855 97.3551 17.1031 97.3196 17.0266C97.284 16.9501 97.2326 16.8811 97.1685 16.8235C97.1043 16.7659 97.0287 16.721 96.9459 16.6913C96.8631 16.6617 96.7749 16.6479 96.6864 16.6508" fill="#1D1D1B"/>
<path d="M104.121 17.364C103.575 16.8747 102.773 16.6229 101.738 16.6229C100.926 16.6147 100.121 16.765 99.3743 17.0644C99.2433 17.1109 99.1342 17.2002 99.067 17.3161C98.9999 17.432 98.9791 17.5668 99.0084 17.6959C99.0377 17.8251 99.1151 17.94 99.2267 18.0198C99.3382 18.0997 99.4765 18.1391 99.6162 18.1309C99.701 18.1291 99.7848 18.1139 99.8642 18.0861C100.421 17.8564 101.021 17.7384 101.629 17.7396C102.512 17.7396 103.562 18.0171 103.562 19.326V19.3599C102.908 19.2043 102.236 19.129 101.562 19.1359C99.6066 19.1359 98.3945 19.9727 98.3945 21.3218V21.3487C98.3945 22.736 99.7952 23.4614 101.18 23.4614C101.617 23.4747 102.053 23.4059 102.462 23.259C102.871 23.1121 103.245 22.89 103.562 22.6056V22.8038C103.563 22.8838 103.582 22.9628 103.616 23.036C103.65 23.1092 103.7 23.1751 103.762 23.2297C103.824 23.2843 103.897 23.3265 103.977 23.3537C104.056 23.381 104.141 23.3927 104.226 23.3882C104.312 23.3911 104.398 23.3775 104.478 23.3482C104.559 23.3189 104.632 23.2745 104.694 23.2177C104.755 23.161 104.804 23.093 104.837 23.0179C104.87 22.9427 104.887 22.8621 104.886 22.7808V19.3154C104.909 18.9577 104.853 18.5994 104.721 18.2634C104.589 17.9274 104.385 17.621 104.12 17.364H104.121ZM103.581 20.3537V20.8564C103.581 21.7531 102.635 22.4319 101.383 22.4319C100.609 22.4319 99.7725 22.079 99.7725 21.3085V21.2879C99.7725 20.5537 100.48 20.118 101.668 20.118C102.314 20.118 102.957 20.1974 103.582 20.354" fill="#1D1D1B"/>
<path d="M0.0445744 30.7664C0.0455675 30.6813 0.0570864 30.5966 0.078901 30.514L0.478008 29.1053H0.125101L0.215253 28.7909H0.575219L0.77862 28.0627H1.15527L0.947054 28.7909H1.74912L1.66346 29.1053H0.858185L0.459722 30.4959C0.451508 30.5541 0.446474 30.6127 0.444641 30.6714C0.444641 30.8412 0.576823 30.9196 0.79338 30.9196C0.921202 30.9172 1.04734 30.8916 1.16489 30.8442L1.06865 31.1708C0.940674 31.2203 0.803365 31.2448 0.665049 31.2428C0.297705 31.2428 0.0429688 31.0775 0.0429688 30.7667" fill="#1D1D1B"/>
<path d="M0.665072 31.2839C0.255699 31.2839 0 31.0847 0 30.7654C0.00120174 30.6768 0.0131499 30.5886 0.0356116 30.5025L0.420603 29.1452H0.0676961L0.180946 28.749H0.540271L0.743352 28.0227H1.21015L1.00098 28.749H1.80528L1.69588 29.1452H0.891252L0.501771 30.5046C0.493891 30.5596 0.489179 30.6149 0.487655 30.6704C0.487655 30.8081 0.59096 30.8783 0.7934 30.8783C0.915889 30.8757 1.0367 30.8509 1.1492 30.8051L1.22972 30.7748L1.10396 31.1985L1.08439 31.2064C0.951404 31.2582 0.80864 31.2841 0.664752 31.2823L0.665072 31.2839ZM0.180305 29.0626H0.530968L0.119989 30.5216C0.0987751 30.6007 0.0873647 30.682 0.0859828 30.7636C0.0859828 31.036 0.30318 31.1994 0.663467 31.1994C0.789223 31.2015 0.914179 31.1801 1.03113 31.1365L1.09915 30.9074C1.00025 30.9398 0.896484 30.9571 0.791797 30.9585C0.450118 30.9585 0.399749 30.777 0.399749 30.6683C0.400763 30.6076 0.405798 30.5469 0.414827 30.4868L0.822917 29.0617H1.62819L1.69235 28.8283H0.889328L1.09819 28.1005H0.809443L0.605718 28.8283H0.247037L0.180305 29.0626Z" fill="#1D1D1B"/>
<path d="M2.70006 27.7974H3.07703L2.68851 29.1777C2.79203 29.0465 2.92552 28.939 3.07909 28.8631C3.23265 28.7873 3.40234 28.745 3.57559 28.7395C3.6828 28.7309 3.79071 28.7441 3.89206 28.7781C3.99341 28.8122 4.08584 28.8664 4.16315 28.937C4.24045 29.0076 4.30082 29.093 4.3402 29.1874C4.37958 29.2819 4.39706 29.3832 4.39145 29.4845C4.38513 29.6113 4.36294 29.737 4.32536 29.8589L3.94935 31.198H3.56789L3.95577 29.8316C3.98033 29.7433 3.99316 29.6524 3.99395 29.5611C3.99775 29.4909 3.98521 29.4208 3.95721 29.3557C3.92921 29.2906 3.88643 29.232 3.83188 29.1842C3.77732 29.1363 3.71232 29.1003 3.64144 29.0787C3.57056 29.0571 3.49552 29.0503 3.42159 29.059C3.20022 29.0793 2.99146 29.1656 2.82564 29.3054C2.65983 29.4452 2.54559 29.6313 2.49954 29.8365L2.11295 31.1983H1.73438L2.70006 27.7974Z" fill="#1D1D1B"/>
<path d="M3.98123 31.2404H3.5093L3.91225 29.8217C3.93413 29.7362 3.94607 29.6488 3.94786 29.5608C3.95152 29.4961 3.94001 29.4314 3.91415 29.3713C3.88829 29.3112 3.84872 29.2572 3.79824 29.2132C3.74777 29.1692 3.68764 29.1362 3.62212 29.1165C3.5566 29.0969 3.4873 29.0911 3.41914 29.0996C3.20701 29.1196 3.00717 29.2029 2.84868 29.3374C2.69018 29.4719 2.58129 29.6506 2.53784 29.8474L2.14322 31.2395H1.67578L1.69022 31.1881L2.66681 27.7542H3.13168L2.7714 29.0331C2.87429 28.9292 2.99838 28.846 3.13621 28.7886C3.27405 28.7311 3.42277 28.7005 3.57346 28.6987C3.6864 28.6894 3.80012 28.7032 3.90693 28.739C4.01374 28.7749 4.11115 28.8319 4.19257 28.9063C4.274 28.9807 4.33754 29.0707 4.3789 29.1703C4.42026 29.2698 4.43847 29.3766 4.43231 29.4834C4.42549 29.6138 4.4031 29.743 4.36558 29.8686L3.98123 31.2404ZM3.62383 31.1581H3.91514L4.28377 29.8477C4.31998 29.7294 4.34151 29.6075 4.34793 29.4846C4.35345 29.3884 4.33697 29.2922 4.29962 29.2026C4.26227 29.113 4.20492 29.032 4.13147 28.9651C4.05801 28.8982 3.97016 28.8471 3.87388 28.815C3.7776 28.783 3.67514 28.7708 3.57346 28.7794C3.40632 28.7852 3.24268 28.8262 3.09459 28.8995C2.9465 28.9729 2.81775 29.0766 2.71782 29.2031L2.59591 29.3314L3.0194 27.8343H2.73322L1.78871 31.1554H2.07745L2.45474 29.8238C2.50364 29.6098 2.62362 29.4161 2.79723 29.2708C2.97084 29.1256 3.18904 29.0364 3.42011 29.0161C3.49968 29.0075 3.58028 29.0154 3.65633 29.039C3.73239 29.0627 3.80209 29.1017 3.86063 29.1532C3.91917 29.2048 3.96514 29.2677 3.99538 29.3377C4.02562 29.4076 4.0394 29.4829 4.03577 29.5584C4.03414 29.6534 4.02079 29.7478 3.99599 29.8399L3.62383 31.1581Z" fill="#1D1D1B"/>
<path d="M5.29138 30.2153C5.28393 30.3128 5.2988 30.4106 5.33497 30.5021C5.37114 30.5937 5.42778 30.6769 5.50103 30.746C5.57428 30.8151 5.66243 30.8685 5.75949 30.9026C5.85656 30.9367 5.96028 30.9507 6.0636 30.9437C6.35398 30.9441 6.63431 30.8435 6.8509 30.661L7.05046 30.8965C6.7748 31.1306 6.41619 31.2587 6.04531 31.2557C5.89776 31.2662 5.74952 31.2473 5.61027 31.2001C5.47102 31.1529 5.34389 31.0785 5.23718 30.9818C5.13048 30.8851 5.04661 30.7682 4.99105 30.6388C4.93548 30.5095 4.90948 30.3705 4.91472 30.231C4.91253 29.85 5.06564 29.4827 5.34241 29.2051C5.61917 28.9276 5.99842 28.7609 6.40175 28.7396C6.53302 28.7311 6.66471 28.749 6.78805 28.7922C6.91139 28.8355 7.02353 28.903 7.11701 28.9904C7.21049 29.0777 7.28316 29.1829 7.33015 29.2988C7.37715 29.4147 7.39741 29.5388 7.38957 29.6627C7.38841 29.8237 7.35578 29.9831 7.29332 30.1329H5.29715C5.29217 30.1601 5.29013 30.1877 5.29105 30.2153H5.29138ZM6.99816 29.8427C7.01083 29.7829 7.01696 29.7221 7.01645 29.6612C7.02469 29.5794 7.01404 29.497 6.98525 29.4195C6.95646 29.342 6.91021 29.2714 6.84968 29.2124C6.78915 29.1534 6.71579 29.1074 6.63464 29.0778C6.55349 29.0481 6.46648 29.0354 6.37961 29.0405C6.13974 29.0514 5.91008 29.1353 5.725 29.2797C5.53993 29.424 5.40941 29.621 5.35298 29.8412L6.99816 29.8427Z" fill="#1D1D1B"/>
<path d="M6.04815 31.2975C5.89476 31.3085 5.74065 31.2887 5.59594 31.2395C5.45123 31.1903 5.31918 31.1128 5.20847 31.012C5.09776 30.9113 5.0109 30.7896 4.95357 30.6549C4.89625 30.5203 4.86976 30.3757 4.87586 30.2307C4.87492 29.8396 5.03284 29.4629 5.31715 29.1782C5.60147 28.8935 5.9906 28.7222 6.40459 28.6997C6.54131 28.6918 6.67826 28.7112 6.80649 28.7566C6.93471 28.8021 7.05133 28.8725 7.14872 28.9634C7.2461 29.0542 7.32206 29.1635 7.37163 29.2839C7.4212 29.4044 7.44326 29.5334 7.43636 29.6624C7.4351 29.8282 7.40149 29.9923 7.33723 30.1466L7.3276 30.1714H5.33849C5.33849 30.1863 5.33849 30.2017 5.33849 30.2141C5.33179 30.306 5.34604 30.3981 5.38029 30.4844C5.41454 30.5706 5.46799 30.6489 5.53704 30.714C5.60608 30.7791 5.68912 30.8295 5.78055 30.8617C5.87198 30.894 5.96969 30.9074 6.06708 30.9011C6.34758 30.9014 6.61843 30.8045 6.82807 30.6287L6.86208 30.6024L7.11361 30.9004L7.08153 30.9271C6.79887 31.1674 6.43123 31.2994 6.05072 31.2972L6.04815 31.2975ZM6.40715 28.7805C6.01567 28.8024 5.64793 28.9649 5.37944 29.2345C5.11095 29.5041 4.9621 29.8605 4.96344 30.2304C4.95826 30.3645 4.98318 30.4981 5.03656 30.6224C5.08994 30.7467 5.17058 30.859 5.27318 30.9518C5.37578 31.0447 5.49803 31.1161 5.63192 31.1613C5.76581 31.2064 5.90831 31.2244 6.05008 31.214C6.39612 31.217 6.73161 31.1017 6.99459 30.8895L6.84893 30.7177C6.63053 30.8915 6.35349 30.9861 6.06772 30.9843C5.95875 30.9913 5.84945 30.9763 5.74719 30.9401C5.64493 30.9039 5.55208 30.8474 5.47491 30.7745C5.39774 30.7016 5.33804 30.6139 5.29984 30.5174C5.26164 30.4209 5.24583 30.3178 5.25347 30.215C5.25256 30.1846 5.25482 30.1542 5.2602 30.1242L5.26951 30.0921H7.26985C7.32318 29.9546 7.35107 29.8094 7.3523 29.663C7.36032 29.5444 7.34128 29.4256 7.29647 29.3145C7.25165 29.2035 7.18211 29.1027 7.09253 29.0192C7.00296 28.9356 6.89542 28.8712 6.77719 28.8302C6.65896 28.7891 6.53277 28.7725 6.40715 28.7814V28.7805ZM7.03886 29.8842H5.29934L5.31603 29.8313C5.3741 29.602 5.50988 29.3969 5.70274 29.247C5.89561 29.0972 6.13504 29.0107 6.3847 29.0008C6.47742 28.9954 6.57029 29.009 6.65693 29.0406C6.74357 29.0722 6.82192 29.1212 6.88658 29.1841C6.95124 29.247 7.00069 29.3224 7.03152 29.4051C7.06235 29.4878 7.07382 29.5757 7.06516 29.663C7.0656 29.7264 7.05926 29.7897 7.04624 29.8518L7.03886 29.8842ZM5.41837 29.8019H6.96667C6.97427 29.756 6.97759 29.7095 6.97662 29.663C6.98461 29.5868 6.97497 29.5098 6.94836 29.4375C6.92176 29.3651 6.87882 29.299 6.82251 29.2438C6.7662 29.1887 6.69787 29.1456 6.62222 29.1178C6.54658 29.0899 6.46543 29.0779 6.38437 29.0826C6.16348 29.0911 5.9511 29.1652 5.77756 29.2944C5.60402 29.4236 5.47819 29.6012 5.41805 29.8019" fill="#1D1D1B"/>
<path d="M9.54297 28.7897H9.93438L10.065 30.7096L11.2988 28.7812H11.6158L11.7573 30.7096L12.987 28.7897H13.3845L11.7942 31.2195H11.458L11.3094 29.316L10.08 31.2195H9.74605L9.54297 28.7897Z" fill="#1D1D1B"/>
<path d="M11.8179 31.2609H11.4178L11.2767 29.4451L10.1044 31.2609H9.7072L9.49609 28.7491H9.97509L10.0989 30.5764L11.2751 28.74H11.6565L11.7929 30.5785L12.9642 28.7491H13.4628L11.8179 31.2609ZM11.4971 31.1786H11.7691L13.3056 28.8308H13.0104L11.7236 30.8402L11.5747 28.822H11.3219L10.029 30.8414L9.89231 28.8308H9.58817L9.78612 31.1786H10.0546L11.3428 29.1867L11.4971 31.1786Z" fill="#1D1D1B"/>
<path d="M13.4348 30.1722C13.4421 29.7972 13.602 29.4392 13.8815 29.1724C14.1609 28.9056 14.5385 28.7503 14.9359 28.7389C15.0891 28.7303 15.2426 28.7521 15.3863 28.8028C15.5301 28.8536 15.661 28.9322 15.7705 29.0335C15.8801 29.1349 15.9659 29.2569 16.0225 29.3915C16.0791 29.5261 16.1051 29.6704 16.0989 29.8151C16.0916 30.1911 15.9316 30.5502 15.6517 30.8182C15.3719 31.0861 14.9937 31.2425 14.5952 31.255C14.4416 31.2632 14.2878 31.2409 14.1439 31.1895C14 31.1381 13.8691 31.0588 13.7597 30.9567C13.6504 30.8546 13.5649 30.732 13.5089 30.5968C13.453 30.4616 13.4277 30.3168 13.4348 30.1718V30.1722ZM15.7126 29.8269C15.722 29.7245 15.7078 29.6214 15.6711 29.5247C15.6343 29.428 15.5759 29.3399 15.4997 29.2664C15.4236 29.193 15.3315 29.1359 15.2299 29.099C15.1282 29.0622 15.0193 29.0465 14.9106 29.0531C14.6138 29.0756 14.3368 29.2024 14.1343 29.4082C13.9318 29.6141 13.8185 29.8841 13.8169 30.1649C13.8076 30.2668 13.8218 30.3694 13.8585 30.4657C13.8952 30.5619 13.9536 30.6496 14.0296 30.7225C14.1057 30.7955 14.1975 30.8521 14.2989 30.8884C14.4003 30.9247 14.5088 30.9399 14.617 30.933C14.9136 30.9124 15.191 30.7871 15.394 30.5821C15.597 30.3771 15.7105 30.1074 15.712 29.8269" fill="#1D1D1B"/>
<path d="M14.5933 31.2977C14.4339 31.3054 14.2746 31.2817 14.1255 31.2281C13.9764 31.1744 13.8407 31.092 13.7273 30.9861C13.6138 30.8802 13.525 30.7532 13.4666 30.6131C13.4081 30.473 13.3812 30.323 13.3877 30.1726C13.3957 29.7867 13.5606 29.4186 13.8483 29.1442C14.136 28.8699 14.5245 28.7102 14.9334 28.6984C15.0922 28.6901 15.2511 28.7132 15.4 28.7661C15.5488 28.819 15.6843 28.9006 15.7978 29.0058C15.9114 29.1109 16.0003 29.2372 16.0592 29.3766C16.118 29.516 16.1453 29.6655 16.1394 29.8155C16.1321 30.2024 15.9677 30.572 15.68 30.8479C15.3923 31.1238 15.0034 31.2851 14.5933 31.2984V31.2977ZM14.9334 28.7804C14.5477 28.7924 14.1816 28.9435 13.9104 29.2025C13.6392 29.4614 13.4836 29.8086 13.4756 30.1726C13.4695 30.312 13.4944 30.4511 13.5486 30.5809C13.6028 30.7108 13.6852 30.8285 13.7905 30.9265C13.8957 31.0246 14.0215 31.1009 14.1598 31.1504C14.2982 31.1999 14.4459 31.2217 14.5936 31.2142C14.9807 31.2024 15.3481 31.0507 15.6198 30.7903C15.8914 30.53 16.0464 30.181 16.0527 29.8158C16.0599 29.6762 16.0356 29.5369 15.9816 29.4068C15.9276 29.2767 15.845 29.1589 15.7393 29.0611C15.6336 28.9632 15.5071 28.8876 15.3682 28.8391C15.2293 28.7907 15.0811 28.7705 14.9334 28.7799V28.7804ZM14.6151 30.9742C14.5014 30.981 14.3874 30.9646 14.2809 30.9262C14.1744 30.8877 14.078 30.8282 13.998 30.7516C13.9181 30.6749 13.8565 30.5829 13.8175 30.4819C13.7785 30.3808 13.763 30.2731 13.772 30.1659C13.7729 29.8743 13.8904 29.5938 14.101 29.3803C14.3116 29.1669 14.5998 29.0362 14.908 29.0144C15.0223 29.0079 15.1366 29.0247 15.2434 29.0635C15.3502 29.1024 15.4468 29.1624 15.5269 29.2396C15.6069 29.3168 15.6684 29.4092 15.7072 29.5108C15.746 29.6123 15.7612 29.7206 15.7518 29.8282C15.7503 30.1192 15.6324 30.399 15.4216 30.6116C15.2107 30.8242 14.9226 30.9538 14.6148 30.9745L14.6151 30.9742ZM14.9077 29.0958C14.6219 29.1169 14.3551 29.2388 14.1603 29.4372C13.9654 29.6355 13.857 29.8958 13.8564 30.1662C13.8473 30.2629 13.8606 30.3603 13.8953 30.4517C13.93 30.5431 13.9853 30.6262 14.0574 30.6955C14.1295 30.7647 14.2167 30.8184 14.3129 30.8528C14.4092 30.8872 14.5122 30.9015 14.6148 30.8946C14.9003 30.8746 15.1673 30.7536 15.3622 30.5559C15.5572 30.3581 15.6659 30.0982 15.6665 29.8282C15.6761 29.7312 15.6632 29.6333 15.6287 29.5415C15.5942 29.4497 15.539 29.366 15.4668 29.2963C15.3946 29.2266 15.3072 29.1726 15.2107 29.138C15.1141 29.1033 15.0108 29.089 14.9077 29.0958Z" fill="#1D1D1B"/>
<path d="M17.1066 28.79H17.4874L17.3161 29.4194C17.436 29.2152 17.612 29.0451 17.8256 28.9272C18.0392 28.8092 18.2825 28.7476 18.5301 28.7488L18.4239 29.1355H18.396C17.8361 29.1355 17.2779 29.5178 17.0764 30.2487L16.8063 31.1974H16.4258L17.1066 28.79Z" fill="#1D1D1B"/>
<path d="M16.8395 31.2399H16.3711L17.074 28.749H17.544L17.4115 29.2332C17.5312 29.0762 17.6873 28.947 17.8678 28.8555C18.0484 28.764 18.2487 28.7125 18.4536 28.7051C18.4786 28.7051 18.5065 28.7051 18.5335 28.7078L18.5857 28.7114L18.4574 29.1748H18.3965C17.8029 29.1748 17.3012 29.5984 17.1193 30.2561L16.8395 31.2399ZM16.4818 31.1573H16.7734L17.0346 30.2367C17.2271 29.5458 17.7577 29.0976 18.39 29.0943L18.4741 28.788C18.2431 28.7977 18.0186 28.8628 17.8217 28.9771C17.6249 29.0914 17.4622 29.2512 17.349 29.4414L17.2129 29.6269L17.4317 28.8307H17.1385L16.4818 31.1573Z" fill="#1D1D1B"/>
<path d="M19.4139 27.7974H19.7928L18.8249 31.1983H18.4453L19.4139 27.7974Z" fill="#1D1D1B"/>
<path d="M18.8613 31.2403H18.3906L19.3852 27.7549H19.8507L19.8382 27.8054L18.8613 31.2403ZM18.5042 31.158H18.7949L19.7394 27.8369H19.4506L18.5042 31.158Z" fill="#1D1D1B"/>
<path d="M19.8792 30.236C19.8624 29.8592 20.003 29.4913 20.2708 29.2113C20.5387 28.9313 20.9123 28.7617 21.3113 28.7388C21.5176 28.7295 21.7217 28.7826 21.8938 28.8902C22.066 28.9977 22.1973 29.1543 22.2687 29.3372L22.7034 27.7974H23.0848L22.1224 31.198H21.7374L21.8542 30.7892C21.74 30.9294 21.5943 31.044 21.4275 31.1246C21.2608 31.2052 21.0771 31.25 20.8898 31.2555C20.7507 31.2562 20.613 31.2298 20.4853 31.1779C20.3575 31.1261 20.2425 31.0499 20.1475 30.9541C20.0525 30.8584 19.9794 30.7451 19.933 30.6215C19.8865 30.4978 19.8677 30.3665 19.8776 30.2357L19.8792 30.236ZM22.1365 29.8011C22.1396 29.7021 22.1212 29.6035 22.0824 29.5114C22.0437 29.4194 21.9854 29.3358 21.9111 29.2658C21.8368 29.1958 21.7481 29.1408 21.6505 29.1043C21.5529 29.0678 21.4484 29.0506 21.3434 29.0536C21.0406 29.0737 20.7584 29.2058 20.5582 29.4212C20.3581 29.6365 20.2562 29.9177 20.2747 30.2036C20.2651 30.2981 20.2769 30.3934 20.3092 30.4834C20.3416 30.5733 20.3937 30.6557 20.4623 30.7252C20.5309 30.7947 20.6143 30.8497 20.7071 30.8865C20.7998 30.9234 20.8998 30.9412 21.0005 30.939C21.3049 30.9142 21.589 30.7846 21.7985 30.5748C22.0081 30.365 22.1284 30.0898 22.1365 29.8017" fill="#1D1D1B"/>
<path d="M20.892 31.2974C20.7477 31.2973 20.6049 31.2694 20.4725 31.2153C20.34 31.1613 20.2208 31.0822 20.122 30.9829C20.0232 30.8837 19.9471 30.7664 19.8983 30.6383C19.8494 30.5102 19.8289 30.374 19.838 30.2381C19.8236 29.851 19.9696 29.4738 20.2451 29.1866C20.5207 28.8993 20.904 28.7246 21.3138 28.6996C21.508 28.6912 21.7006 28.7357 21.8686 28.8278C22.0367 28.92 22.173 29.0559 22.2612 29.2192L22.6719 27.7566H23.1438L22.1579 31.2408H21.6841L21.7717 30.9351C21.6581 31.0479 21.5218 31.1382 21.3707 31.2005C21.2196 31.2629 21.0569 31.2961 20.892 31.2983V31.2974ZM21.3126 28.7804C20.9256 28.8055 20.5643 28.9716 20.305 29.2437C20.0457 29.5157 19.9088 29.8723 19.9234 30.2379C19.9129 30.3633 19.9303 30.4895 19.9743 30.6083C20.0184 30.7271 20.0882 30.8359 20.1793 30.9279C20.2704 31.0198 20.3809 31.0928 20.5036 31.1422C20.6263 31.1917 20.7585 31.2165 20.892 31.215C21.0732 31.2101 21.251 31.1669 21.4123 31.0888C21.5736 31.0107 21.7144 30.8996 21.8243 30.7635L21.9472 30.6325L21.797 31.1594H22.0915L23.0303 27.8374H22.738L22.2782 29.4652L22.2301 29.353C22.1609 29.1783 22.0348 29.0288 21.8699 28.926C21.705 28.8231 21.5097 28.7723 21.3122 28.7807L21.3126 28.7804ZM21.002 30.9802C20.8958 30.9824 20.7903 30.9633 20.6925 30.9244C20.5946 30.8854 20.5066 30.8274 20.4342 30.7541C20.3618 30.6808 20.3066 30.594 20.2722 30.4991C20.2379 30.4043 20.2252 30.3037 20.2349 30.204C20.2164 29.9077 20.3227 29.6166 20.5307 29.3939C20.7386 29.1712 21.0314 29.035 21.3453 29.0149C21.4561 29.0111 21.5665 29.0288 21.6697 29.067C21.7729 29.1051 21.8667 29.1629 21.9452 29.2367C22.0237 29.3105 22.0853 29.3987 22.1261 29.4959C22.1669 29.5932 22.186 29.6973 22.1823 29.8018C22.1753 30.1012 22.0507 30.3875 21.8327 30.6052C21.6146 30.8229 21.3185 30.9564 21.002 30.9799V30.9802ZM21.3453 29.0957C21.0543 29.1159 20.7835 29.2436 20.5917 29.4511C20.4 29.6585 20.3028 29.929 20.3212 30.2037C20.3122 30.2926 20.3231 30.3824 20.3534 30.4671C20.3836 30.5518 20.4325 30.6295 20.4967 30.6952C20.561 30.7609 20.6392 30.813 20.7262 30.8483C20.8133 30.8835 20.9073 30.9011 21.002 30.8997C21.2949 30.8742 21.5678 30.7487 21.7693 30.5466C21.9709 30.3446 22.0872 30.08 22.0963 29.8027C22.0996 29.709 22.0823 29.6156 22.0457 29.5284C22.0091 29.4412 21.9539 29.3621 21.8835 29.2959C21.8131 29.2297 21.729 29.1778 21.6365 29.1436C21.544 29.1093 21.445 29.0933 21.3456 29.0966" fill="#1D1D1B"/>
<path d="M25.1729 28.7908H25.5521L24.8636 31.1982H24.4883L25.1729 28.7908ZM25.409 27.866H25.8444L25.7308 28.2639H25.2948L25.409 27.866Z" fill="#1D1D1B"/>
<path d="M24.8991 31.2387H24.4336L25.1417 28.7489H25.6113L24.8991 31.2387ZM24.5462 31.1576H24.8321L25.4987 28.8303H25.2081L24.5462 31.1576ZM25.7653 28.3044H25.2398L25.3787 27.8247H25.9023L25.7653 28.3044ZM25.3528 28.2214H25.6996L25.7901 27.9052H25.4448L25.3528 28.2214Z" fill="#1D1D1B"/>
<path d="M26.3439 28.7907H26.7263L26.6159 29.1774C26.7205 29.0464 26.8548 28.939 27.009 28.8632C27.1632 28.7874 27.3334 28.745 27.5072 28.7392C27.6144 28.7305 27.7223 28.7436 27.8236 28.7776C27.9249 28.8116 28.0173 28.8658 28.0945 28.9364C28.1717 29.0071 28.2319 29.0926 28.271 29.1871C28.3101 29.2817 28.3272 29.383 28.3211 29.4843C28.3138 29.6109 28.2923 29.7363 28.257 29.8586L27.8806 31.1981H27.5001L27.889 29.8317C27.911 29.743 27.923 29.6523 27.9246 29.5612C27.9285 29.4909 27.916 29.4206 27.8879 29.3554C27.8599 29.2901 27.8169 29.2315 27.7622 29.1836C27.7075 29.1357 27.6423 29.0997 27.5713 29.0782C27.5002 29.0567 27.425 29.0502 27.351 29.0591C27.1297 29.0794 26.921 29.1658 26.7552 29.3056C26.5895 29.4454 26.4753 29.6314 26.4292 29.8365L26.0442 31.1984H25.6641L26.3439 28.7907Z" fill="#1D1D1B"/>
<path d="M27.9119 31.2407H27.4451L27.8464 29.822C27.8684 29.7366 27.8799 29.6491 27.8808 29.5612C27.885 29.4961 27.8738 29.431 27.848 29.3705C27.8222 29.31 27.7825 29.2557 27.7317 29.2115C27.6808 29.1674 27.6202 29.1345 27.5542 29.1152C27.4882 29.0959 27.4185 29.0907 27.3501 29.0999C27.1382 29.12 26.9385 29.2034 26.7803 29.3379C26.622 29.4724 26.5133 29.651 26.4701 29.8477L26.0774 31.2399H25.6055L26.3113 28.7489H26.7826L26.7014 29.034C26.8048 28.9298 26.9295 28.8465 27.0679 28.7889C27.2064 28.7313 27.3557 28.7007 27.507 28.699C27.6198 28.6899 27.7333 28.7038 27.8399 28.7397C27.9466 28.7756 28.0437 28.8327 28.125 28.9071C28.2062 28.9815 28.2695 29.0715 28.3106 29.1709C28.3518 29.2704 28.3699 29.377 28.3636 29.4837C28.3567 29.6131 28.3352 29.7414 28.2994 29.8665L27.9119 31.2407ZM27.557 31.1584H27.8458L28.2122 29.8477C28.2473 29.7292 28.2688 29.6075 28.2763 29.4846C28.2818 29.3889 28.2654 29.2932 28.2283 29.2039C28.1912 29.1147 28.1343 29.034 28.0613 28.9673C27.9883 28.9006 27.901 28.8495 27.8053 28.8173C27.7095 28.7852 27.6076 28.7728 27.5064 28.781C27.3389 28.7872 27.175 28.8284 27.0265 28.9017C26.878 28.9749 26.7487 29.0784 26.6478 29.2046L26.5265 29.3318L26.6703 28.8303H26.3774L25.7197 31.1572H26.0103L26.387 29.8256C26.4354 29.6119 26.5548 29.4183 26.7279 29.273C26.901 29.1277 27.1188 29.0384 27.3495 29.0179C27.4291 29.0093 27.5098 29.017 27.586 29.0407C27.6622 29.0643 27.732 29.1032 27.7907 29.1548C27.8494 29.2063 27.8955 29.2693 27.9259 29.3393C27.9563 29.4093 27.9702 29.4847 27.9667 29.5602C27.9653 29.6552 27.9524 29.7498 27.9282 29.842L27.557 31.1584Z" fill="#1D1D1B"/>
<path d="M29.7031 31.7915L29.9136 31.5209C30.028 31.5971 30.164 31.6392 30.304 31.642C30.5209 31.642 30.7134 31.5367 30.9694 31.1956L30.5036 28.7915H30.9017L31.2595 30.8001L32.6284 28.7915H33.0605L31.3121 31.28C30.9511 31.7782 30.6447 31.9588 30.2639 31.9588C30.0633 31.9595 29.8675 31.9013 29.7034 31.7924" fill="#1D1D1B"/>
<path d="M30.2624 31.9999C30.0525 32.0004 29.8477 31.939 29.6766 31.8244L29.6406 31.8014L29.9047 31.4639L29.9393 31.4906C30.0463 31.5601 30.1726 31.5985 30.3025 31.601C30.5181 31.601 30.6981 31.48 30.9217 31.1864L30.4504 28.7502H30.9348L31.2807 30.6871L32.6022 28.7502H33.1389L31.3465 31.3017C30.9865 31.798 30.6727 31.9999 30.2618 31.9999H30.2624ZM29.7638 31.7805C29.912 31.8714 30.085 31.9195 30.2618 31.9188C30.6406 31.9188 30.9339 31.7248 31.2746 31.2554L32.9782 28.8314H32.6506L31.2351 30.9095L30.8643 28.8314H30.5553L31.0141 31.2055L31.0041 31.2176C30.7561 31.5475 30.555 31.6818 30.3038 31.6818C30.1695 31.6794 30.0382 31.6438 29.923 31.5787L29.7638 31.7805Z" fill="#1D1D1B"/>
<path d="M33.0413 30.1727C33.0493 29.7974 33.2099 29.4393 33.4899 29.1726C33.7699 28.9058 34.1479 28.7507 34.5456 28.7394C34.699 28.7308 34.8525 28.7526 34.9963 28.8033C35.1402 28.854 35.2712 28.9326 35.381 29.034C35.4907 29.1353 35.5768 29.2572 35.6336 29.3918C35.6904 29.5264 35.7167 29.6708 35.7109 29.8155C35.7027 30.192 35.5418 30.5512 35.2612 30.8191C34.9807 31.087 34.602 31.2432 34.203 31.2555C34.0493 31.2633 33.8956 31.2407 33.7518 31.1893C33.6079 31.1378 33.477 31.0586 33.3675 30.9566C33.258 30.8546 33.1723 30.7321 33.1159 30.5971C33.0595 30.462 33.0337 30.3174 33.04 30.1723L33.0413 30.1727ZM35.3179 29.8274C35.3274 29.7255 35.3135 29.6229 35.2773 29.5265C35.241 29.4301 35.1832 29.3421 35.1078 29.2687C35.0324 29.1952 34.941 29.1379 34.8401 29.1007C34.7391 29.0635 34.6308 29.0472 34.5225 29.0529C34.2261 29.0756 33.9495 29.2025 33.7475 29.4084C33.5455 29.6143 33.4328 29.8843 33.4317 30.1648C33.4221 30.2668 33.4361 30.3695 33.4727 30.4659C33.5093 30.5623 33.5677 30.6501 33.6438 30.7231C33.7198 30.7961 33.8118 30.8527 33.9134 30.8889C34.0149 30.9251 34.1236 30.9401 34.2319 30.9329C34.5278 30.9116 34.8044 30.786 35.0066 30.581C35.2087 30.376 35.3216 30.1067 35.3227 29.8267" fill="#1D1D1B"/>
<path d="M34.2039 31.2978C34.0445 31.3055 33.885 31.2818 33.7358 31.2282C33.5866 31.1746 33.4509 31.0922 33.3374 30.9863C33.2238 30.8805 33.1349 30.7534 33.0763 30.6133C33.0177 30.4732 32.9907 30.3232 32.997 30.1727C33.0055 29.7867 33.1708 29.4185 33.4588 29.1442C33.7469 28.8698 34.1355 28.7103 34.5446 28.6985C34.7036 28.69 34.8627 28.7129 35.0118 28.7657C35.1609 28.8185 35.2966 28.9001 35.4104 29.0052C35.5241 29.1104 35.6133 29.2368 35.6723 29.3763C35.7313 29.5158 35.7587 29.6654 35.7529 29.8155C35.7454 30.2029 35.5805 30.5727 35.2922 30.8487C35.004 31.1246 34.6144 31.2856 34.2039 31.2984V31.2978ZM34.5446 28.7805C34.1586 28.792 33.7919 28.9428 33.5202 29.2019C33.2485 29.4609 33.0926 29.8084 33.0846 30.1727C33.0786 30.3122 33.1037 30.4513 33.158 30.5811C33.2124 30.711 33.2949 30.8287 33.4002 30.9268C33.5056 31.0249 33.6315 31.101 33.7699 31.1506C33.9083 31.2001 34.0561 31.2218 34.2039 31.2143C34.5916 31.203 34.9597 31.0515 35.2322 30.7912C35.5047 30.5308 35.6606 30.1816 35.6675 29.8158C35.6727 29.6765 35.647 29.5377 35.592 29.4083C35.5371 29.2788 35.4541 29.1616 35.3485 29.0641C35.2428 28.9666 35.1167 28.891 34.9783 28.8421C34.8399 28.7931 34.6922 28.772 34.5446 28.7799V28.7805ZM34.228 30.9743C34.1143 30.9809 34.0004 30.9644 33.894 30.9259C33.7876 30.8875 33.6912 30.8279 33.6113 30.7513C33.5314 30.6747 33.4699 30.5828 33.4309 30.4818C33.3919 30.3808 33.3763 30.2731 33.3852 30.166C33.3861 29.8745 33.5034 29.5941 33.7138 29.3807C33.9242 29.1673 34.2122 29.0365 34.5203 29.0145C34.6345 29.0081 34.7488 29.0249 34.8555 29.0638C34.9622 29.1027 35.0588 29.1628 35.1388 29.2399C35.2188 29.3171 35.2803 29.4095 35.3192 29.511C35.358 29.6125 35.3733 29.7207 35.364 29.8282C35.3627 30.1192 35.245 30.399 35.0343 30.6116C34.8237 30.8241 34.5357 30.9538 34.228 30.9746V30.9743ZM34.5203 29.0959C34.2348 29.1173 33.9684 29.2393 33.7741 29.4377C33.5798 29.6361 33.4719 29.8962 33.4718 30.1663C33.4626 30.2628 33.4756 30.3601 33.5101 30.4514C33.5446 30.5426 33.5997 30.6258 33.6715 30.6951C33.7434 30.7643 33.8303 30.818 33.9264 30.8525C34.0224 30.887 34.1252 30.9014 34.2277 30.8947C34.5129 30.8744 34.7795 30.7533 34.9741 30.5556C35.1688 30.3578 35.2771 30.0981 35.2774 29.8282C35.2871 29.7313 35.2742 29.6336 35.2399 29.5418C35.2055 29.4501 35.1503 29.3665 35.0783 29.2968C35.0062 29.2271 34.919 29.173 34.8225 29.1384C34.7261 29.1037 34.6229 29.0892 34.5199 29.0959" fill="#1D1D1B"/>
<path d="M36.2318 30.5034C36.2375 30.3776 36.2591 30.2528 36.296 30.1317L36.6713 28.7896H37.0499L36.6601 30.1548C36.6391 30.2429 36.6273 30.3328 36.6248 30.4232C36.6208 30.4933 36.6331 30.5634 36.6607 30.6286C36.6883 30.6938 36.7306 30.7526 36.7847 30.8008C36.8388 30.8491 36.9033 30.8857 36.9739 30.9081C37.0444 30.9304 37.1193 30.9381 37.1933 30.9304C37.4162 30.9103 37.6263 30.8229 37.7922 30.6811C37.9582 30.5393 38.0712 30.3508 38.1144 30.1436L38.5055 28.7881H38.885L38.202 31.1955H37.8221L37.9344 30.8021C37.8304 30.9345 37.6961 31.043 37.5416 31.1198C37.387 31.1965 37.2161 31.2395 37.0416 31.2454C36.9346 31.254 36.827 31.2408 36.726 31.2066C36.625 31.1725 36.5329 31.1182 36.4561 31.0475C36.3793 30.9768 36.3195 30.8914 36.2808 30.797C36.2421 30.7026 36.2254 30.6014 36.2318 30.5004" fill="#1D1D1B"/>
<path d="M37.042 31.2894C36.9292 31.2981 36.8158 31.2839 36.7094 31.2477C36.603 31.2115 36.506 31.1542 36.4251 31.0796C36.3443 31.005 36.2813 30.9148 36.2406 30.8153C36.1998 30.7158 36.1822 30.6091 36.1889 30.5026C36.1934 30.3735 36.215 30.2454 36.253 30.1213L36.6361 28.7485H37.1052L36.7006 30.1639C36.6813 30.2494 36.6706 30.3363 36.6685 30.4236C36.6644 30.4883 36.6753 30.553 36.7006 30.6133C36.726 30.6736 36.765 30.7278 36.815 30.7723C36.865 30.8167 36.9248 30.8502 36.9901 30.8705C37.0554 30.8907 37.1245 30.8971 37.1927 30.8893C37.4058 30.8683 37.6062 30.7835 37.7646 30.6474C37.923 30.5113 38.0311 30.3309 38.0731 30.1328L38.4728 28.7473H38.9396L38.2338 31.2365H37.7654L37.8472 30.9481C37.744 31.0528 37.6193 31.1368 37.4808 31.195C37.3422 31.2532 37.1927 31.2844 37.041 31.2867L37.042 31.2894ZM36.7029 28.8284L36.3361 30.1394C36.3003 30.2577 36.2795 30.3796 36.2742 30.5026C36.2674 30.5984 36.2826 30.6944 36.319 30.7841C36.3554 30.8738 36.4121 30.9549 36.485 31.0219C36.5579 31.0889 36.6454 31.1401 36.7414 31.1721C36.8374 31.204 36.9397 31.2159 37.041 31.2068C37.2093 31.2003 37.374 31.1585 37.523 31.0844C37.6721 31.0102 37.8017 30.9057 37.9024 30.7783L38.024 30.6481L37.879 31.1566H38.1677L38.8274 28.8297H38.5386L38.1571 30.1564C38.1094 30.371 37.9904 30.5658 37.8173 30.7123C37.6442 30.8587 37.4261 30.9493 37.1947 30.9708C37.1151 30.9785 37.0348 30.9699 36.9591 30.9456C36.8835 30.9213 36.8143 30.8817 36.7564 30.8297C36.6984 30.7778 36.6531 30.7146 36.6236 30.6446C36.594 30.5745 36.5809 30.4992 36.5851 30.4239C36.5878 30.3302 36.5995 30.2369 36.6201 30.1452L36.9961 28.83L36.7029 28.8284Z" fill="#1D1D1B"/>
<path d="M39.7299 28.79H40.1098L39.9401 29.4194C40.0598 29.2148 40.2359 29.0445 40.4497 28.9264C40.6636 28.8084 40.9073 28.747 41.155 28.7488L41.0453 29.1356H41.019C40.4601 29.1356 39.9025 29.5178 39.6988 30.2487L39.4296 31.1974H39.0469L39.7299 28.79Z" fill="#1D1D1B"/>
<path d="M39.4638 31.2409H38.9922L39.698 28.7499H40.1664L40.0365 29.2323C40.1628 29.064 40.3316 28.928 40.5277 28.8367C40.7238 28.7454 40.9408 28.7016 41.1593 28.7094L41.212 28.7127L41.082 29.1763H41.0224C40.4285 29.1763 39.9274 29.6 39.7439 30.2576L39.4638 31.2409ZM39.1057 31.1586H39.3971L39.6573 30.2379C39.8498 29.547 40.3823 29.0989 41.014 29.0955L41.1003 28.7892C40.8693 28.7986 40.6446 28.8636 40.4477 28.978C40.2508 29.0924 40.0882 29.2525 39.9755 29.4429L39.8382 29.6285L40.0551 28.8322H39.7638L39.1057 31.1586Z" fill="#1D1D1B"/>
<path d="M43.4702 27.7974H43.8475L43.4548 29.1777C43.5591 29.0469 43.6929 28.9396 43.8467 28.8638C44.0004 28.788 44.1702 28.7455 44.3435 28.7395C44.451 28.7303 44.5592 28.7431 44.661 28.7769C44.7627 28.8108 44.8556 28.8648 44.9332 28.9355C45.0108 29.0062 45.0714 29.0918 45.1108 29.1866C45.1502 29.2813 45.1675 29.3829 45.1616 29.4845C45.1553 29.6112 45.1338 29.7368 45.0975 29.8589L44.7224 31.198H44.341L44.7259 29.8316C44.7527 29.7437 44.7663 29.6526 44.7664 29.5611C44.7697 29.4908 44.7567 29.4207 44.7283 29.3556C44.7 29.2905 44.6569 29.232 44.6022 29.1842C44.5474 29.1365 44.4823 29.1005 44.4113 29.0789C44.3403 29.0572 44.2652 29.0505 44.1911 29.059C43.9695 29.0794 43.7605 29.1658 43.5943 29.3055C43.428 29.4452 43.3131 29.6312 43.2662 29.8365L42.8812 31.1983H42.5039L43.4702 27.7974Z" fill="#1D1D1B"/>
<path d="M44.756 31.2403H44.2869L44.6857 29.8218C44.7115 29.7368 44.7252 29.6489 44.7261 29.5604C44.7294 29.4954 44.7175 29.4305 44.6913 29.3703C44.665 29.3101 44.625 29.256 44.5742 29.212C44.5233 29.168 44.4629 29.1351 44.397 29.1156C44.3312 29.0961 44.2616 29.0905 44.1932 29.0992C43.981 29.1192 43.7811 29.2025 43.6224 29.337C43.4638 29.4714 43.3547 29.6501 43.311 29.847L42.9179 31.2391H42.4492L42.4649 31.1876L43.4406 27.7549H43.908L43.5436 29.0338C43.6466 28.9301 43.7708 28.8472 43.9086 28.7897C44.0463 28.7323 44.195 28.7015 44.3456 28.6994C44.4588 28.69 44.5727 28.7036 44.6798 28.7393C44.7869 28.775 44.8846 28.832 44.9663 28.9064C45.048 28.9808 45.1119 29.0708 45.1535 29.1705C45.1952 29.2702 45.2136 29.3771 45.2077 29.4841C45.2008 29.6145 45.1784 29.7437 45.1409 29.8694L44.756 31.2403ZM44.3979 31.158H44.6902L45.0572 29.8476C45.0926 29.7292 45.1136 29.6073 45.1198 29.4844C45.1261 29.3881 45.1102 29.2917 45.0731 29.2018C45.036 29.1119 44.9786 29.0307 44.9049 28.9638C44.8313 28.8969 44.7431 28.8458 44.6465 28.8142C44.5498 28.7826 44.4471 28.7712 44.3453 28.7808C44.1782 28.7871 44.0147 28.8284 43.8666 28.9017C43.7185 28.975 43.5895 29.0784 43.489 29.2045L43.3681 29.3328L43.7938 27.8357H43.5051L42.5606 31.1567H42.8493L43.2256 29.8252C43.2745 29.6112 43.3946 29.4174 43.5682 29.2721C43.7419 29.1269 43.9602 29.0377 44.1913 29.0175C44.2711 29.0086 44.352 29.0162 44.4283 29.0398C44.5047 29.0633 44.5747 29.1022 44.6335 29.1538C44.6924 29.2053 44.7386 29.2683 44.7691 29.3384C44.7996 29.4085 44.8136 29.4841 44.8102 29.5598C44.8097 29.6554 44.7951 29.7505 44.7669 29.8424L44.3979 31.158Z" fill="#1D1D1B"/>
<path d="M45.5312 30.5817C45.5312 30.0418 46.0067 29.7114 46.667 29.7114C46.9725 29.7165 47.2759 29.7602 47.5691 29.8415L47.5881 29.7834C47.6071 29.7106 47.6178 29.6361 47.6201 29.5612C47.6201 29.2562 47.3927 29.0734 46.9333 29.0734C46.6859 29.0751 46.4409 29.1185 46.2098 29.2017L46.1434 28.8991C46.4132 28.7986 46.701 28.7484 46.991 28.7511C47.6346 28.7511 47.9961 29.0356 47.9961 29.4995C47.992 29.6105 47.9756 29.7209 47.9474 29.8288L47.5624 31.1951H47.1845L47.2919 30.8193C47.1761 30.9531 47.0301 31.0609 46.8645 31.1348C46.699 31.2087 46.5181 31.2469 46.3349 31.2466C46.2351 31.2565 46.1341 31.2468 46.0385 31.218C45.9428 31.1893 45.8545 31.1421 45.7792 31.0795C45.7038 31.017 45.643 30.9404 45.6006 30.8545C45.5582 30.7687 45.5351 30.6755 45.5329 30.5808L45.5312 30.5817ZM47.4604 30.2543L47.5069 30.0833C47.238 30.0122 46.9603 29.9758 46.6811 29.9749C46.2351 29.9749 45.922 30.2067 45.922 30.5414C45.922 30.7966 46.1293 30.963 46.4584 30.963C46.6832 30.9591 46.9009 30.8886 47.0807 30.7613C47.2605 30.6341 47.3932 30.4567 47.46 30.2543" fill="#1D1D1B"/>
<path d="M46.3349 31.29C46.2292 31.3005 46.1224 31.2901 46.0212 31.2596C45.9199 31.229 45.8265 31.1789 45.7469 31.1125C45.6673 31.0461 45.6032 30.9648 45.5587 30.8737C45.5142 30.7827 45.4902 30.6839 45.4883 30.5837C45.4883 30.039 45.9631 29.6722 46.6689 29.6722C46.9641 29.6761 47.2574 29.7168 47.5412 29.7932L47.5486 29.7739C47.5662 29.7044 47.5761 29.6334 47.5781 29.562C47.5781 29.194 47.2294 29.1157 46.9365 29.1157C46.694 29.1163 46.4538 29.1593 46.2281 29.2427L46.1813 29.2567L46.0975 28.8753L46.1325 28.8626C46.4069 28.7612 46.6995 28.7106 46.9942 28.7138C47.65 28.7138 48.0417 29.0073 48.0417 29.5006C48.0389 29.6155 48.0222 29.7297 47.992 29.8411L47.5974 31.2389H47.1312L47.2092 30.9638C46.9746 31.1755 46.6615 31.2922 46.3369 31.2891L46.3349 31.29ZM46.6708 29.7524C46.0164 29.7524 45.5755 30.0853 45.5755 30.5828C45.5788 30.6721 45.6015 30.7598 45.6423 30.8404C45.683 30.9211 45.7409 30.9929 45.8123 31.0516C45.8837 31.1102 45.9672 31.1544 46.0575 31.1813C46.1478 31.2082 46.243 31.2173 46.3372 31.208C46.514 31.2088 46.6887 31.1721 46.8485 31.1007C47.0083 31.0294 47.1491 30.9251 47.2605 30.7955L47.3827 30.6636L47.2429 31.1578H47.5316L47.9092 29.8214C47.9372 29.7164 47.9527 29.6088 47.9554 29.5006C47.9554 29.0521 47.6044 28.7946 46.9949 28.7946C46.7229 28.7919 46.4528 28.8369 46.1983 28.9271L46.2464 29.1492C46.4678 29.0729 46.7017 29.0336 46.9374 29.0333C47.4074 29.0333 47.6667 29.2203 47.6667 29.5614C47.6648 29.6396 47.654 29.7175 47.6346 29.7935L47.6025 29.891L47.5618 29.8813C47.2726 29.8002 46.9731 29.7568 46.6715 29.7524H46.6708ZM46.4604 31.0037C46.1091 31.0037 45.8829 30.824 45.8829 30.5434C45.8829 30.1854 46.2114 29.9382 46.685 29.9382C46.9684 29.939 47.2505 29.9757 47.5236 30.0472L47.5643 30.058L47.5056 30.2666C47.4363 30.4778 47.298 30.6629 47.1105 30.7955C46.9229 30.928 46.6957 31.0013 46.4613 31.0047L46.4604 31.0037ZM46.6859 30.0193C46.2643 30.0193 45.9692 30.2354 45.9692 30.5444C45.9692 30.7789 46.1591 30.9232 46.4626 30.9232C46.6781 30.9201 46.887 30.8528 47.0595 30.731C47.2321 30.6091 47.3593 30.4389 47.4232 30.2448L47.4591 30.1146C47.2067 30.0516 46.9467 30.0195 46.6856 30.019" fill="#1D1D1B"/>
<path d="M49.0405 28.7906H49.4207L49.3125 29.1773C49.4167 29.0466 49.5504 28.9394 49.7039 28.8636C49.8575 28.7878 50.0271 28.7453 50.2003 28.7391C50.3076 28.7301 50.4156 28.743 50.5172 28.777C50.6187 28.8109 50.7113 28.8651 50.7887 28.9357C50.866 29.0064 50.9264 29.092 50.9655 29.1866C51.0047 29.2813 51.0219 29.3827 51.0158 29.4842C51.0109 29.611 50.9894 29.7367 50.9516 29.8585L50.5769 31.198H50.198L50.583 29.8316C50.608 29.7433 50.6208 29.6524 50.6209 29.5611C50.6248 29.4909 50.6124 29.4208 50.5845 29.3557C50.5566 29.2906 50.5139 29.232 50.4595 29.1841C50.405 29.1363 50.34 29.1003 50.2692 29.0786C50.1984 29.057 50.1234 29.0503 50.0495 29.059C49.828 29.0802 49.6192 29.1668 49.4529 29.3064C49.2866 29.446 49.1711 29.6314 49.1229 29.8364L48.7379 31.1983H48.3594L49.0405 28.7906Z" fill="#1D1D1B"/>
<path d="M50.6085 31.2407H50.1401L50.5412 29.822C50.5651 29.7368 50.5776 29.6492 50.5784 29.5611C50.582 29.4963 50.5704 29.4316 50.5445 29.3715C50.5186 29.3114 50.479 29.2575 50.4285 29.2134C50.378 29.1694 50.3179 29.1364 50.2524 29.1168C50.1868 29.0972 50.1175 29.0914 50.0493 29.0999C49.8371 29.1208 49.6373 29.2045 49.4784 29.3389C49.3195 29.4733 49.2096 29.6515 49.1645 29.8483L48.7725 31.2404H48.3047L49.0073 28.7494H49.4763L49.3965 29.0345C49.4997 28.931 49.6238 28.8481 49.7616 28.7905C49.8993 28.733 50.0479 28.702 50.1985 28.6995C50.3114 28.6904 50.4251 28.7042 50.5318 28.7401C50.6386 28.7759 50.7359 28.833 50.8173 28.9074C50.8987 28.9818 50.9622 29.0717 51.0035 29.1713C51.0449 29.2708 51.0631 29.3775 51.057 29.4842C51.0511 29.6146 51.029 29.7439 50.991 29.8695L50.6085 31.2407ZM50.2531 31.1584H50.5418L50.9088 29.8477C50.9456 29.7295 50.9672 29.6076 50.973 29.4845C50.9793 29.3884 50.9634 29.2922 50.9264 29.2024C50.8894 29.1126 50.8322 29.0315 50.7588 28.9646C50.6853 28.8977 50.5974 28.8467 50.501 28.8149C50.4046 28.7832 50.3021 28.7716 50.2004 28.7809C50.0334 28.7873 49.87 28.8286 49.722 28.9018C49.574 28.9751 49.4452 29.0785 49.3448 29.2046L49.2245 29.3317L49.3657 28.8302H49.0769L48.4192 31.1572H48.708L49.0824 29.8256C49.1333 29.6119 49.2544 29.4189 49.4283 29.2739C49.6023 29.1289 49.8202 29.0393 50.0513 29.0179C50.1309 29.0092 50.2115 29.017 50.2877 29.0406C50.3638 29.0642 50.4336 29.1032 50.4922 29.1547C50.5508 29.2063 50.5969 29.2693 50.6271 29.3393C50.6574 29.4093 50.6712 29.4847 50.6676 29.5602C50.6667 29.6558 50.6527 29.7509 50.6259 29.8431L50.2531 31.1584Z" fill="#1D1D1B"/>
<path d="M51.5384 30.236C51.5218 29.8594 51.6624 29.4916 51.93 29.2117C52.1976 28.9318 52.5708 28.762 52.9696 28.7388C53.1761 28.73 53.3801 28.7832 53.5525 28.8907C53.7249 28.9982 53.8567 29.1545 53.9289 29.3372L54.3662 27.7974H54.7422L53.7781 31.198H53.4018L53.5137 30.7892C53.3995 30.9288 53.254 31.043 53.0877 31.1236C52.9213 31.2042 52.7382 31.2493 52.5513 31.2555C52.4121 31.2565 52.2741 31.2304 52.1462 31.1786C52.0182 31.1269 51.903 31.0507 51.8078 30.9549C51.7126 30.8591 51.6395 30.7457 51.593 30.6219C51.5465 30.4981 51.5277 30.3666 51.5378 30.2357L51.5384 30.236ZM53.7957 29.8011C53.7993 29.7023 53.7813 29.6039 53.7429 29.5119C53.7046 29.42 53.6466 29.3364 53.5727 29.2663C53.4988 29.1963 53.4105 29.1413 53.3131 29.1047C53.2158 29.0681 53.1116 29.0507 53.0068 29.0536C52.7041 29.0737 52.4221 29.2059 52.2221 29.4213C52.0222 29.6367 51.9206 29.9178 51.9394 30.2036C51.9289 30.2977 51.9398 30.3928 51.9714 30.4827C52.0029 30.5725 52.0544 30.655 52.1224 30.7246C52.1904 30.7942 52.2734 30.8493 52.3657 30.8863C52.4581 30.9232 52.5578 30.9412 52.6581 30.939C52.9629 30.9148 53.2476 30.7854 53.4575 30.5756C53.6675 30.3657 53.7879 30.0901 53.7957 29.8017" fill="#1D1D1B"/>
<path d="M52.5529 31.2974C52.4083 31.2976 52.2652 31.2699 52.1323 31.216C51.9995 31.1621 51.8798 31.083 51.7806 30.9838C51.6814 30.8845 51.6048 30.7672 51.5555 30.639C51.5063 30.5107 51.4854 30.3743 51.4941 30.2381C51.48 29.8511 51.6262 29.4741 51.9016 29.1869C52.1771 28.8997 52.5602 28.7249 52.9699 28.6996C53.1642 28.6919 53.3568 28.7369 53.5249 28.8291C53.693 28.9214 53.8296 29.057 53.9186 29.2201L54.3322 27.7566H54.7977L53.8102 31.2408H53.3447L53.4316 30.9339C53.3181 31.0469 53.1818 31.1373 53.0307 31.2C52.8797 31.2627 52.7169 31.2963 52.5519 31.2989L52.5529 31.2974ZM52.969 28.781C52.582 28.8059 52.2205 28.972 51.9612 29.2441C51.7019 29.5162 51.565 29.8729 51.5798 30.2385C51.5693 30.3641 51.5867 30.4904 51.6309 30.6094C51.6751 30.7283 51.7451 30.8373 51.8365 30.9292C51.9279 31.0212 52.0386 31.0942 52.1615 31.1435C52.2845 31.1928 52.417 31.2174 52.5506 31.2157C52.7315 31.2101 52.9088 31.1668 53.0697 31.0887C53.2306 31.0106 53.3711 30.8997 53.481 30.7641L53.5997 30.634L53.4563 31.1597H53.7418L54.6835 27.8377H54.397L53.936 29.4637L53.8878 29.3533C53.8192 29.178 53.693 29.028 53.5276 28.9251C53.3623 28.8221 53.1665 28.7717 52.9687 28.781H52.969ZM52.6574 30.9805C52.5516 30.9823 52.4466 30.963 52.3493 30.9238C52.252 30.8846 52.1645 30.8265 52.0926 30.7532C52.0208 30.6799 51.9662 30.5931 51.9324 30.4985C51.8986 30.4039 51.8863 30.3036 51.8965 30.2043C51.8777 29.9081 51.9838 29.6169 52.1917 29.3942C52.3996 29.1714 52.6923 29.0352 53.0062 29.0153C53.1166 29.0117 53.2267 29.0296 53.3294 29.0679C53.4322 29.1062 53.5255 29.1641 53.6035 29.2379C53.6816 29.3118 53.7426 29.4 53.7829 29.497C53.8232 29.5941 53.8419 29.6979 53.8378 29.8021C53.8309 30.1015 53.7063 30.3879 53.4882 30.6056C53.2701 30.8233 52.974 30.9568 52.6574 30.9802V30.9805ZM53.0062 29.096C52.7152 29.1163 52.4444 29.244 52.2526 29.4514C52.0608 29.6589 51.9635 29.9293 51.9818 30.204C51.9711 30.2929 51.9807 30.3829 52.01 30.4679C52.0393 30.553 52.0876 30.6312 52.1516 30.6971C52.2156 30.7631 52.2939 30.8153 52.3812 30.8503C52.4684 30.8853 52.5626 30.9023 52.6574 30.9C52.9504 30.8744 53.2233 30.7488 53.425 30.5468C53.6268 30.3448 53.7434 30.0803 53.7531 29.803C53.7566 29.7095 53.7397 29.6163 53.7034 29.5293C53.6671 29.4423 53.6122 29.3632 53.5422 29.297C53.4721 29.2308 53.3884 29.1788 53.2962 29.1444C53.204 29.11 53.1053 29.0938 53.0062 29.0969" fill="#1D1D1B"/>
</svg>
